<?xml version="1.0" encoding="utf-8" standalone="no"?>
<!DOCTYPE svg PUBLIC "-//W3C//DTD SVG 1.1//EN"
  "http://www.w3.org/Graphics/SVG/1.1/DTD/svg11.dtd">
<svg xmlns:xlink="http://www.w3.org/1999/xlink" width="432pt" height="288pt" viewBox="0 0 432 288" xmlns="http://www.w3.org/2000/svg" version="1.1">
 <metadata>
  <rdf:RDF xmlns:dc="http://purl.org/dc/elements/1.1/" xmlns:cc="http://creativecommons.org/ns#" xmlns:rdf="http://www.w3.org/1999/02/22-rdf-syntax-ns#">
   <cc:Work>
    <dc:type rdf:resource="http://purl.org/dc/dcmitype/StillImage"/>
    <dc:date>2022-05-31T19:01:00.481958</dc:date>
    <dc:format>image/svg+xml</dc:format>
    <dc:creator>
     <cc:Agent>
      <dc:title>Matplotlib v3.5.1, https://matplotlib.org/</dc:title>
     </cc:Agent>
    </dc:creator>
   </cc:Work>
  </rdf:RDF>
 </metadata>
 <defs>
  <style type="text/css">*{stroke-linejoin: round; stroke-linecap: butt}</style>
 </defs>
 <g id="figure_1">
  <g id="patch_1">
   <path d="M 0 288 
L 432 288 
L 432 0 
L 0 0 
L 0 288 
z
" style="fill: none"/>
  </g>
  <g id="axes_1">
   <g id="patch_2">
    <path d="M 54 252 
L 388.8 252 
L 388.8 34.56 
L 54 34.56 
z
" style="fill: #ffffff"/>
   </g>
   <g id="matplotlib.axis_1">
    <g id="xtick_1">
     <g id="line2d_1">
      <defs>
       <path id="m972b3d54a8" d="M 0 0 
L 0 3.5 
" style="stroke: #000000; stroke-width: 0.8"/>
      </defs>
      <g>
       <use xlink:href="#m972b3d54a8" x="69.218182" y="252" style="stroke: #000000; stroke-width: 0.8"/>
      </g>
     </g>
     <g id="text_1">
      <!-- 0 -->
      <g transform="translate(66.718182 265.835938)scale(0.1 -0.1)">
       <defs>
        <path id="SimHei-30" d="M 2975 2250 
Q 2975 1350 2650 700 
Q 2325 50 1600 50 
Q 875 50 537 700 
Q 200 1350 200 2250 
Q 200 3150 537 3787 
Q 875 4425 1600 4425 
Q 2325 4425 2650 3787 
Q 2975 3150 2975 2250 
z
M 2375 2250 
Q 2375 3050 2187 3500 
Q 2000 3950 1600 3950 
Q 1200 3950 1000 3500 
Q 800 3050 800 2250 
Q 800 1450 1000 987 
Q 1200 525 1600 525 
Q 2000 525 2187 987 
Q 2375 1450 2375 2250 
z
" transform="scale(0.015625)"/>
       </defs>
       <use xlink:href="#SimHei-30"/>
      </g>
     </g>
    </g>
    <g id="xtick_2">
     <g id="line2d_2">
      <g>
       <use xlink:href="#m972b3d54a8" x="130.090909" y="252" style="stroke: #000000; stroke-width: 0.8"/>
      </g>
     </g>
     <g id="text_2">
      <!-- 100 -->
      <g transform="translate(122.590909 265.835938)scale(0.1 -0.1)">
       <defs>
        <path id="SimHei-31" d="M 1950 100 
L 1375 100 
L 1375 3425 
L 625 3425 
L 625 3725 
Q 1075 3725 1325 3900 
Q 1575 4075 1650 4425 
L 1950 4425 
L 1950 100 
z
" transform="scale(0.015625)"/>
       </defs>
       <use xlink:href="#SimHei-31"/>
       <use xlink:href="#SimHei-30" x="50"/>
       <use xlink:href="#SimHei-30" x="100"/>
      </g>
     </g>
    </g>
    <g id="xtick_3">
     <g id="line2d_3">
      <g>
       <use xlink:href="#m972b3d54a8" x="190.963636" y="252" style="stroke: #000000; stroke-width: 0.8"/>
      </g>
     </g>
     <g id="text_3">
      <!-- 200 -->
      <g transform="translate(183.463636 265.835938)scale(0.1 -0.1)">
       <defs>
        <path id="SimHei-32" d="M 2850 100 
L 300 100 
L 300 500 
Q 450 900 712 1237 
Q 975 1575 1475 2000 
Q 1850 2325 2012 2600 
Q 2175 2875 2175 3200 
Q 2175 3525 2037 3737 
Q 1900 3950 1600 3950 
Q 1350 3950 1162 3725 
Q 975 3500 975 2925 
L 400 2925 
Q 425 3650 737 4037 
Q 1050 4425 1625 4425 
Q 2175 4425 2475 4087 
Q 2775 3750 2775 3175 
Q 2775 2700 2500 2350 
Q 2225 2000 1825 1650 
Q 1375 1250 1200 1050 
Q 1025 850 875 575 
L 2850 575 
L 2850 100 
z
" transform="scale(0.015625)"/>
       </defs>
       <use xlink:href="#SimHei-32"/>
       <use xlink:href="#SimHei-30" x="50"/>
       <use xlink:href="#SimHei-30" x="100"/>
      </g>
     </g>
    </g>
    <g id="xtick_4">
     <g id="line2d_4">
      <g>
       <use xlink:href="#m972b3d54a8" x="251.836364" y="252" style="stroke: #000000; stroke-width: 0.8"/>
      </g>
     </g>
     <g id="text_4">
      <!-- 300 -->
      <g transform="translate(244.336364 265.835938)scale(0.1 -0.1)">
       <defs>
        <path id="SimHei-33" d="M 2825 1300 
Q 2825 725 2462 387 
Q 2100 50 1550 50 
Q 1000 50 637 387 
Q 275 725 275 1425 
L 850 1425 
Q 850 950 1037 737 
Q 1225 525 1550 525 
Q 1875 525 2050 725 
Q 2225 925 2225 1350 
Q 2225 1700 2037 1900 
Q 1850 2100 1375 2100 
L 1375 2525 
Q 1775 2525 1962 2725 
Q 2150 2925 2150 3325 
Q 2150 3625 2012 3800 
Q 1875 3975 1575 3975 
Q 1275 3975 1112 3762 
Q 950 3550 925 3150 
L 375 3150 
Q 425 3725 737 4075 
Q 1050 4425 1575 4425 
Q 2125 4425 2425 4112 
Q 2725 3800 2725 3350 
Q 2725 2925 2575 2687 
Q 2425 2450 2075 2325 
Q 2425 2250 2625 1975 
Q 2825 1700 2825 1300 
z
" transform="scale(0.015625)"/>
       </defs>
       <use xlink:href="#SimHei-33"/>
       <use xlink:href="#SimHei-30" x="50"/>
       <use xlink:href="#SimHei-30" x="100"/>
      </g>
     </g>
    </g>
    <g id="xtick_5">
     <g id="line2d_5">
      <g>
       <use xlink:href="#m972b3d54a8" x="312.709091" y="252" style="stroke: #000000; stroke-width: 0.8"/>
      </g>
     </g>
     <g id="text_5">
      <!-- 400 -->
      <g transform="translate(305.209091 265.835938)scale(0.1 -0.1)">
       <defs>
        <path id="SimHei-34" d="M 2975 1200 
L 2450 1200 
L 2450 100 
L 1875 100 
L 1875 1200 
L 200 1200 
L 200 1675 
L 1875 4425 
L 2450 4425 
L 2450 1675 
L 2975 1675 
L 2975 1200 
z
M 1875 1675 
L 1875 3525 
L 750 1675 
L 1875 1675 
z
" transform="scale(0.015625)"/>
       </defs>
       <use xlink:href="#SimHei-34"/>
       <use xlink:href="#SimHei-30" x="50"/>
       <use xlink:href="#SimHei-30" x="100"/>
      </g>
     </g>
    </g>
    <g id="xtick_6">
     <g id="line2d_6">
      <g>
       <use xlink:href="#m972b3d54a8" x="373.581818" y="252" style="stroke: #000000; stroke-width: 0.8"/>
      </g>
     </g>
     <g id="text_6">
      <!-- 500 -->
      <g transform="translate(366.081818 265.835938)scale(0.1 -0.1)">
       <defs>
        <path id="SimHei-35" d="M 2825 1650 
Q 2825 900 2462 475 
Q 2100 50 1500 50 
Q 975 50 637 400 
Q 300 750 275 1350 
L 850 1350 
Q 850 975 1025 750 
Q 1200 525 1525 525 
Q 1850 525 2037 800 
Q 2225 1075 2225 1650 
Q 2225 2150 2062 2387 
Q 1900 2625 1625 2625 
Q 1400 2625 1237 2525 
Q 1075 2425 925 2175 
L 425 2175 
L 575 4375 
L 2725 4375 
L 2725 3900 
L 1050 3900 
L 950 2750 
Q 1100 2900 1275 2975 
Q 1450 3050 1750 3050 
Q 2225 3050 2525 2687 
Q 2825 2325 2825 1650 
z
" transform="scale(0.015625)"/>
       </defs>
       <use xlink:href="#SimHei-35"/>
       <use xlink:href="#SimHei-30" x="50"/>
       <use xlink:href="#SimHei-30" x="100"/>
      </g>
     </g>
    </g>
    <g id="text_7">
     <!-- 经过的时间 Elapsed Time (min) -->
     <g transform="translate(148.9 279.289062)scale(0.1 -0.1)">
      <defs>
       <path id="SimHei-7ecf" d="M 1425 4950 
Q 1675 4775 2000 4625 
Q 1825 4425 1575 4037 
Q 1325 3650 950 3000 
Q 1175 3000 1875 3025 
Q 2175 3450 2325 3875 
Q 2550 3600 2850 3475 
Q 2625 3250 2275 2800 
Q 1925 2350 1325 1600 
Q 1500 1600 1875 1625 
Q 2250 1650 2775 1675 
Q 2675 1450 2625 1225 
Q 2400 1250 1825 1212 
Q 1250 1175 725 1050 
Q 650 1275 550 1525 
Q 850 1725 1100 1987 
Q 1350 2250 1575 2625 
Q 1425 2625 1100 2587 
Q 775 2550 550 2475 
Q 475 2750 350 3000 
Q 625 3225 937 3775 
Q 1250 4325 1425 4950 
z
M 350 150 
Q 1100 225 1362 275 
Q 1625 325 2475 475 
Q 2450 300 2450 25 
Q 2200 -25 1612 -150 
Q 1025 -275 550 -425 
Q 450 -75 350 150 
z
M 2850 4650 
Q 3275 4625 3725 4625 
L 5450 4625 
Q 5325 4325 5162 4062 
Q 5000 3800 4700 3375 
Q 5050 3175 5412 2937 
Q 5775 2700 6125 2475 
Q 5825 2350 5650 2050 
Q 5350 2350 5087 2575 
Q 4825 2800 4450 3075 
Q 4150 2775 3800 2525 
Q 3450 2275 2925 1950 
Q 2750 2225 2525 2400 
Q 2950 2550 3287 2762 
Q 3625 2975 3862 3200 
Q 4100 3425 4287 3687 
Q 4475 3950 4625 4200 
L 3725 4200 
Q 3275 4200 2850 4175 
L 2850 4650 
z
M 2925 1775 
Q 3350 1750 3750 1750 
L 4925 1750 
Q 5350 1750 5700 1775 
L 5700 1300 
Q 5375 1325 4950 1325 
L 4575 1325 
L 4575 -50 
L 5300 -50 
Q 5650 -50 6025 -25 
L 6025 -500 
Q 5650 -475 5300 -475 
L 3375 -475 
Q 3025 -475 2625 -500 
L 2625 -25 
Q 3025 -50 3375 -50 
L 4100 -50 
L 4100 1325 
L 3750 1325 
Q 3350 1325 2925 1300 
L 2925 1775 
z
" transform="scale(0.015625)"/>
       <path id="SimHei-8fc7" d="M 4075 250 
Q 4000 550 3850 825 
Q 4400 825 4550 850 
Q 4700 875 4700 1250 
L 4700 3525 
L 3150 3525 
Q 2700 3525 2325 3500 
L 2325 3950 
Q 2700 3925 3150 3925 
L 4700 3925 
Q 4700 4550 4650 4950 
L 5200 4950 
Q 5175 4650 5175 3925 
Q 5525 3925 5950 3950 
L 5950 3500 
Q 5550 3525 5175 3525 
L 5175 1075 
Q 5175 525 4862 425 
Q 4550 325 4075 250 
z
M 3825 1875 
Q 3600 1775 3350 1625 
Q 3200 1925 2800 2775 
Q 3000 2875 3275 2975 
Q 3700 2175 3825 1875 
z
M 800 4475 
Q 1000 4625 1250 4750 
Q 1400 4525 1975 3750 
Q 1725 3600 1525 3450 
Q 1000 4250 800 4475 
z
M 875 -550 
Q 725 -375 400 -225 
Q 1150 400 1400 575 
L 1400 2325 
Q 825 2325 550 2300 
L 550 2750 
Q 775 2725 1450 2725 
L 1900 2725 
Q 1875 2350 1875 2000 
L 1875 475 
Q 2575 -100 3925 -87 
Q 5275 -75 6075 50 
Q 5925 -200 5850 -525 
Q 5025 -525 4412 -525 
Q 3800 -525 3312 -487 
Q 2825 -450 2475 -300 
Q 2125 -150 1862 37 
Q 1600 225 1362 0 
Q 1125 -225 875 -550 
z
" transform="scale(0.015625)"/>
       <path id="SimHei-7684" d="M 1525 5100 
Q 1850 5025 2200 4925 
Q 2100 4775 2025 4487 
Q 1950 4200 1900 3975 
L 2975 3975 
Q 2950 3525 2950 2900 
L 2950 700 
Q 2950 300 2975 -225 
L 2500 -225 
L 2500 300 
L 1200 300 
L 1200 -275 
L 725 -275 
Q 750 350 750 650 
L 750 2875 
Q 750 3525 725 3975 
L 1425 3975 
Q 1450 4225 1475 4462 
Q 1500 4700 1525 5100 
z
M 1200 3525 
L 1200 2425 
L 2500 2425 
L 2500 3525 
L 1200 3525 
z
M 1200 1950 
L 1200 775 
L 2500 775 
L 2500 1950 
L 1200 1950 
z
M 5850 3925 
Q 5800 3450 5775 3000 
L 5600 175 
Q 5525 -275 5150 -400 
Q 4775 -525 4350 -550 
Q 4350 -275 4175 25 
Q 4600 0 4850 37 
Q 5100 75 5150 350 
L 5350 3475 
L 4025 3475 
Q 3825 3050 3550 2525 
Q 3350 2675 3125 2775 
Q 3275 3000 3462 3400 
Q 3650 3800 3787 4262 
Q 3925 4725 3975 5025 
Q 4300 4875 4600 4800 
Q 4475 4600 4375 4387 
Q 4275 4175 4200 3925 
L 5850 3925 
z
M 3650 2300 
Q 3825 2400 4075 2550 
Q 4200 2325 4325 2050 
Q 4450 1775 4600 1375 
Q 4400 1300 4150 1150 
Q 4075 1425 3937 1750 
Q 3800 2075 3650 2300 
z
" transform="scale(0.015625)"/>
       <path id="SimHei-65f6" d="M 2800 3825 
Q 3550 3800 4775 3800 
Q 4775 4550 4750 5200 
L 5275 5200 
Q 5250 4550 5250 3800 
Q 5600 3800 6000 3825 
L 6000 3350 
Q 5600 3375 5250 3375 
L 5250 25 
Q 5250 -350 4962 -450 
Q 4675 -550 4225 -600 
Q 4225 -300 3975 -25 
Q 4425 -75 4600 -50 
Q 4775 -25 4775 275 
L 4775 3375 
Q 3600 3375 2800 3350 
L 2800 3825 
z
M 3075 2475 
Q 3300 2575 3525 2700 
Q 3825 2175 4125 1575 
Q 3875 1500 3625 1350 
Q 3425 1950 3075 2475 
z
M 625 4550 
L 2575 4550 
Q 2550 3650 2550 2375 
Q 2550 1100 2575 375 
L 2075 375 
L 2075 850 
L 1125 850 
L 1125 25 
L 625 25 
Q 650 1175 650 2337 
Q 650 3500 625 4550 
z
M 1125 4125 
L 1125 2950 
L 2075 2950 
L 2075 4125 
L 1125 4125 
z
M 1125 2525 
L 1125 1275 
L 2075 1275 
L 2075 2525 
L 1125 2525 
z
" transform="scale(0.015625)"/>
       <path id="SimHei-95f4" d="M 1225 4950 
Q 1500 5150 1650 5225 
Q 1875 4925 2300 4300 
Q 2050 4175 1825 4025 
Q 1575 4525 1225 4950 
z
M 1250 500 
Q 1250 0 1275 -500 
L 775 -500 
Q 800 -25 800 525 
L 800 3100 
Q 800 3625 775 3975 
L 1275 3975 
Q 1250 3600 1250 3250 
L 1250 500 
z
M 2725 4825 
Q 3175 4800 3700 4800 
L 5600 4800 
Q 5575 4350 5575 3875 
L 5575 250 
Q 5600 -300 5287 -425 
Q 4975 -550 4600 -600 
Q 4575 -300 4400 -25 
Q 4850 -50 4987 25 
Q 5125 100 5125 350 
L 5125 4400 
L 3725 4400 
Q 3175 4400 2725 4375 
L 2725 4825 
z
M 2500 3100 
L 2500 2325 
L 3875 2325 
L 3875 3100 
L 2500 3100 
z
M 2500 1925 
L 2500 1025 
L 3875 1025 
L 3875 1925 
L 2500 1925 
z
M 2025 3500 
L 4350 3500 
Q 4325 3050 4325 2700 
L 4325 1400 
Q 4325 1075 4350 625 
L 2025 625 
Q 2050 1075 2050 1425 
L 2050 2700 
Q 2050 3050 2025 3500 
z
" transform="scale(0.015625)"/>
       <path id="SimHei-20" transform="scale(0.015625)"/>
       <path id="SimHei-45" d="M 2925 100 
L 375 100 
L 375 4375 
L 2800 4375 
L 2800 3900 
L 950 3900 
L 950 2575 
L 2650 2575 
L 2650 2100 
L 950 2100 
L 950 575 
L 2925 575 
L 2925 100 
z
" transform="scale(0.015625)"/>
       <path id="SimHei-6c" d="M 1850 100 
L 1350 100 
L 1350 4375 
L 1850 4375 
L 1850 100 
z
" transform="scale(0.015625)"/>
       <path id="SimHei-61" d="M 2900 100 
L 2300 100 
Q 2250 150 2225 237 
Q 2200 325 2200 450 
Q 2025 250 1775 150 
Q 1525 50 1250 50 
Q 850 50 575 250 
Q 300 450 300 825 
Q 300 1200 550 1425 
Q 800 1650 1325 1725 
Q 1675 1775 1937 1850 
Q 2200 1925 2200 2050 
Q 2200 2200 2087 2350 
Q 1975 2500 1600 2500 
Q 1300 2500 1162 2387 
Q 1025 2275 975 2075 
L 425 2075 
Q 475 2475 787 2712 
Q 1100 2950 1600 2950 
Q 2150 2950 2425 2700 
Q 2700 2450 2700 2000 
L 2700 625 
Q 2700 475 2750 350 
Q 2800 225 2900 100 
z
M 2200 1025 
L 2200 1525 
Q 2050 1475 1912 1437 
Q 1775 1400 1450 1350 
Q 1075 1300 962 1175 
Q 850 1050 850 875 
Q 850 725 962 612 
Q 1075 500 1300 500 
Q 1525 500 1787 625 
Q 2050 750 2200 1025 
z
" transform="scale(0.015625)"/>
       <path id="SimHei-70" d="M 2850 1500 
Q 2850 775 2500 400 
Q 2150 25 1650 25 
Q 1375 25 1175 137 
Q 975 250 825 475 
L 825 -825 
L 325 -825 
L 325 2900 
L 825 2900 
L 825 2525 
Q 975 2750 1175 2850 
Q 1375 2950 1650 2950 
Q 2150 2950 2500 2587 
Q 2850 2225 2850 1500 
z
M 2300 1500 
Q 2300 1975 2112 2237 
Q 1925 2500 1550 2500 
Q 1250 2500 1037 2237 
Q 825 1975 825 1500 
Q 825 1025 1037 750 
Q 1250 475 1550 475 
Q 1925 475 2112 750 
Q 2300 1025 2300 1500 
z
" transform="scale(0.015625)"/>
       <path id="SimHei-73" d="M 2775 875 
Q 2775 475 2462 262 
Q 2150 50 1675 50 
Q 1075 50 750 287 
Q 425 525 425 975 
L 925 975 
Q 925 675 1137 575 
Q 1350 475 1650 475 
Q 1950 475 2100 587 
Q 2250 700 2250 875 
Q 2250 1000 2125 1125 
Q 2000 1250 1500 1325 
Q 925 1400 712 1612 
Q 500 1825 500 2175 
Q 500 2475 787 2712 
Q 1075 2950 1625 2950 
Q 2125 2950 2412 2725 
Q 2700 2500 2700 2125 
L 2200 2125 
Q 2200 2350 2037 2437 
Q 1875 2525 1625 2525 
Q 1300 2525 1162 2412 
Q 1025 2300 1025 2150 
Q 1025 1975 1150 1875 
Q 1275 1775 1675 1725 
Q 2325 1625 2550 1412 
Q 2775 1200 2775 875 
z
" transform="scale(0.015625)"/>
       <path id="SimHei-65" d="M 2875 1050 
Q 2825 600 2475 325 
Q 2125 50 1650 50 
Q 1050 50 662 437 
Q 275 825 275 1500 
Q 275 2175 662 2562 
Q 1050 2950 1650 2950 
Q 2175 2950 2512 2612 
Q 2850 2275 2850 1500 
L 825 1500 
Q 825 950 1062 725 
Q 1300 500 1650 500 
Q 1925 500 2100 637 
Q 2275 775 2325 1050 
L 2875 1050 
z
M 2275 1900 
Q 2225 2250 2050 2387 
Q 1875 2525 1600 2525 
Q 1350 2525 1150 2387 
Q 950 2250 850 1900 
L 2275 1900 
z
" transform="scale(0.015625)"/>
       <path id="SimHei-64" d="M 2775 100 
L 2275 100 
L 2275 475 
Q 2125 250 1925 150 
Q 1725 50 1450 50 
Q 950 50 600 412 
Q 250 775 250 1500 
Q 250 2225 600 2600 
Q 950 2975 1450 2975 
Q 1725 2975 1925 2862 
Q 2125 2750 2275 2525 
L 2275 4375 
L 2775 4375 
L 2775 100 
z
M 2275 1500 
Q 2275 1975 2062 2250 
Q 1850 2525 1550 2525 
Q 1175 2525 987 2250 
Q 800 1975 800 1500 
Q 800 1025 987 762 
Q 1175 500 1550 500 
Q 1850 500 2062 762 
Q 2275 1025 2275 1500 
z
" transform="scale(0.015625)"/>
       <path id="SimHei-54" d="M 2875 3900 
L 1875 3900 
L 1875 100 
L 1300 100 
L 1300 3900 
L 300 3900 
L 300 4375 
L 2875 4375 
L 2875 3900 
z
" transform="scale(0.015625)"/>
       <path id="SimHei-69" d="M 1825 3700 
L 1325 3700 
L 1325 4350 
L 1825 4350 
L 1825 3700 
z
M 1825 100 
L 1325 100 
L 1325 2900 
L 1825 2900 
L 1825 100 
z
" transform="scale(0.015625)"/>
       <path id="SimHei-6d" d="M 3075 100 
L 2575 100 
L 2575 2125 
Q 2575 2275 2525 2375 
Q 2475 2475 2325 2475 
Q 2150 2475 2000 2287 
Q 1850 2100 1850 1800 
L 1850 100 
L 1350 100 
L 1350 2125 
Q 1350 2275 1300 2375 
Q 1250 2475 1100 2475 
Q 925 2475 775 2287 
Q 625 2100 625 1800 
L 625 100 
L 125 100 
L 125 2900 
L 625 2900 
L 625 2525 
Q 750 2725 925 2837 
Q 1100 2950 1300 2950 
Q 1500 2950 1637 2837 
Q 1775 2725 1825 2525 
Q 1950 2725 2112 2837 
Q 2275 2950 2475 2950 
Q 2775 2950 2925 2787 
Q 3075 2625 3075 2325 
L 3075 100 
z
" transform="scale(0.015625)"/>
       <path id="SimHei-28" d="M 3000 -225 
L 2725 -500 
Q 2100 100 1787 750 
Q 1475 1400 1475 2225 
Q 1475 3050 1787 3700 
Q 2100 4350 2725 4975 
L 3000 4700 
Q 2425 4150 2137 3562 
Q 1850 2975 1850 2225 
Q 1850 1475 2137 887 
Q 2425 300 3000 -225 
z
" transform="scale(0.015625)"/>
       <path id="SimHei-6e" d="M 2825 100 
L 2325 100 
L 2325 1900 
Q 2325 2200 2175 2375 
Q 2025 2550 1775 2550 
Q 1450 2550 1162 2212 
Q 875 1875 875 1375 
L 875 100 
L 375 100 
L 375 2900 
L 875 2900 
L 875 2375 
Q 1075 2650 1312 2800 
Q 1550 2950 1925 2950 
Q 2375 2950 2600 2700 
Q 2825 2450 2825 2075 
L 2825 100 
z
" transform="scale(0.015625)"/>
       <path id="SimHei-29" d="M 1700 2225 
Q 1700 1400 1387 750 
Q 1075 100 450 -500 
L 175 -225 
Q 750 300 1037 887 
Q 1325 1475 1325 2225 
Q 1325 2975 1037 3562 
Q 750 4150 175 4700 
L 450 4975 
Q 1075 4350 1387 3700 
Q 1700 3050 1700 2225 
z
" transform="scale(0.015625)"/>
      </defs>
      <use xlink:href="#SimHei-7ecf"/>
      <use xlink:href="#SimHei-8fc7" x="100"/>
      <use xlink:href="#SimHei-7684" x="200"/>
      <use xlink:href="#SimHei-65f6" x="300"/>
      <use xlink:href="#SimHei-95f4" x="400"/>
      <use xlink:href="#SimHei-20" x="500"/>
      <use xlink:href="#SimHei-45" x="550"/>
      <use xlink:href="#SimHei-6c" x="600"/>
      <use xlink:href="#SimHei-61" x="650"/>
      <use xlink:href="#SimHei-70" x="700"/>
      <use xlink:href="#SimHei-73" x="750"/>
      <use xlink:href="#SimHei-65" x="800"/>
      <use xlink:href="#SimHei-64" x="850"/>
      <use xlink:href="#SimHei-20" x="900"/>
      <use xlink:href="#SimHei-54" x="950"/>
      <use xlink:href="#SimHei-69" x="1000"/>
      <use xlink:href="#SimHei-6d" x="1050"/>
      <use xlink:href="#SimHei-65" x="1100"/>
      <use xlink:href="#SimHei-20" x="1150"/>
      <use xlink:href="#SimHei-28" x="1200"/>
      <use xlink:href="#SimHei-6d" x="1250"/>
      <use xlink:href="#SimHei-69" x="1300"/>
      <use xlink:href="#SimHei-6e" x="1350"/>
      <use xlink:href="#SimHei-29" x="1400"/>
     </g>
    </g>
   </g>
   <g id="matplotlib.axis_2">
    <g id="ytick_1">
     <g id="line2d_7">
      <defs>
       <path id="me42bd9465a" d="M 0 0 
L -3.5 0 
" style="stroke: #000000; stroke-width: 0.8"/>
      </defs>
      <g>
       <use xlink:href="#me42bd9465a" x="54" y="231.766274" style="stroke: #000000; stroke-width: 0.8"/>
      </g>
     </g>
     <g id="text_8">
      <!-- 24 -->
      <g transform="translate(37 235.184242)scale(0.1 -0.1)">
       <use xlink:href="#SimHei-32"/>
       <use xlink:href="#SimHei-34" x="50"/>
      </g>
     </g>
    </g>
    <g id="ytick_2">
     <g id="line2d_8">
      <g>
       <use xlink:href="#me42bd9465a" x="54" y="204.653082" style="stroke: #000000; stroke-width: 0.8"/>
      </g>
     </g>
     <g id="text_9">
      <!-- 26 -->
      <g transform="translate(37 208.071051)scale(0.1 -0.1)">
       <defs>
        <path id="SimHei-36" d="M 2850 1550 
Q 2850 850 2550 450 
Q 2250 50 1650 50 
Q 1050 50 700 550 
Q 350 1050 350 2175 
Q 350 3200 712 3812 
Q 1075 4425 1750 4425 
Q 2225 4425 2512 4075 
Q 2800 3725 2800 3300 
L 2225 3300 
Q 2225 3550 2087 3750 
Q 1950 3950 1725 3950 
Q 1350 3950 1150 3562 
Q 950 3175 925 2375 
Q 1100 2700 1300 2825 
Q 1500 2950 1775 2950 
Q 2250 2950 2550 2575 
Q 2850 2200 2850 1550 
z
M 2250 1550 
Q 2250 2000 2100 2250 
Q 1950 2500 1675 2500 
Q 1350 2500 1162 2250 
Q 975 2000 975 1650 
Q 975 1100 1162 800 
Q 1350 500 1675 500 
Q 1900 500 2075 725 
Q 2250 950 2250 1550 
z
" transform="scale(0.015625)"/>
       </defs>
       <use xlink:href="#SimHei-32"/>
       <use xlink:href="#SimHei-36" x="50"/>
      </g>
     </g>
    </g>
    <g id="ytick_3">
     <g id="line2d_9">
      <g>
       <use xlink:href="#me42bd9465a" x="54" y="177.539891" style="stroke: #000000; stroke-width: 0.8"/>
      </g>
     </g>
     <g id="text_10">
      <!-- 28 -->
      <g transform="translate(37 180.95786)scale(0.1 -0.1)">
       <defs>
        <path id="SimHei-38" d="M 2875 1325 
Q 2875 700 2525 375 
Q 2175 50 1575 50 
Q 975 50 625 375 
Q 275 700 275 1325 
Q 275 1650 475 1912 
Q 675 2175 1025 2300 
Q 725 2425 562 2650 
Q 400 2875 400 3225 
Q 400 3775 750 4100 
Q 1100 4425 1575 4425 
Q 2050 4425 2400 4100 
Q 2750 3775 2750 3225 
Q 2750 2875 2587 2650 
Q 2425 2425 2125 2300 
Q 2475 2175 2675 1912 
Q 2875 1650 2875 1325 
z
M 2200 3225 
Q 2200 3625 2025 3800 
Q 1850 3975 1575 3975 
Q 1300 3975 1125 3800 
Q 950 3625 950 3225 
Q 950 2825 1137 2662 
Q 1325 2500 1575 2500 
Q 1825 2500 2012 2662 
Q 2200 2825 2200 3225 
z
M 2300 1325 
Q 2300 1675 2112 1875 
Q 1925 2075 1575 2075 
Q 1225 2075 1037 1875 
Q 850 1675 850 1325 
Q 850 925 1050 712 
Q 1250 500 1575 500 
Q 1900 500 2100 712 
Q 2300 925 2300 1325 
z
" transform="scale(0.015625)"/>
       </defs>
       <use xlink:href="#SimHei-32"/>
       <use xlink:href="#SimHei-38" x="50"/>
      </g>
     </g>
    </g>
    <g id="ytick_4">
     <g id="line2d_10">
      <g>
       <use xlink:href="#me42bd9465a" x="54" y="150.4267" style="stroke: #000000; stroke-width: 0.8"/>
      </g>
     </g>
     <g id="text_11">
      <!-- 30 -->
      <g transform="translate(37 153.844668)scale(0.1 -0.1)">
       <use xlink:href="#SimHei-33"/>
       <use xlink:href="#SimHei-30" x="50"/>
      </g>
     </g>
    </g>
    <g id="ytick_5">
     <g id="line2d_11">
      <g>
       <use xlink:href="#me42bd9465a" x="54" y="123.313508" style="stroke: #000000; stroke-width: 0.8"/>
      </g>
     </g>
     <g id="text_12">
      <!-- 32 -->
      <g transform="translate(37 126.731477)scale(0.1 -0.1)">
       <use xlink:href="#SimHei-33"/>
       <use xlink:href="#SimHei-32" x="50"/>
      </g>
     </g>
    </g>
    <g id="ytick_6">
     <g id="line2d_12">
      <g>
       <use xlink:href="#me42bd9465a" x="54" y="96.200317" style="stroke: #000000; stroke-width: 0.8"/>
      </g>
     </g>
     <g id="text_13">
      <!-- 34 -->
      <g transform="translate(37 99.618286)scale(0.1 -0.1)">
       <use xlink:href="#SimHei-33"/>
       <use xlink:href="#SimHei-34" x="50"/>
      </g>
     </g>
    </g>
    <g id="ytick_7">
     <g id="line2d_13">
      <g>
       <use xlink:href="#me42bd9465a" x="54" y="69.087126" style="stroke: #000000; stroke-width: 0.8"/>
      </g>
     </g>
     <g id="text_14">
      <!-- 36 -->
      <g transform="translate(37 72.505095)scale(0.1 -0.1)">
       <use xlink:href="#SimHei-33"/>
       <use xlink:href="#SimHei-36" x="50"/>
      </g>
     </g>
    </g>
    <g id="ytick_8">
     <g id="line2d_14">
      <g>
       <use xlink:href="#me42bd9465a" x="54" y="41.973935" style="stroke: #000000; stroke-width: 0.8"/>
      </g>
     </g>
     <g id="text_15">
      <!-- 38 -->
      <g transform="translate(37 45.391903)scale(0.1 -0.1)">
       <use xlink:href="#SimHei-33"/>
       <use xlink:href="#SimHei-38" x="50"/>
      </g>
     </g>
    </g>
    <g id="text_16">
     <!-- 股票价格 Stock Price ($) -->
     <g transform="translate(31.710937 203.28)rotate(-90)scale(0.1 -0.1)">
      <defs>
       <path id="SimHei-80a1" d="M 5250 4800 
Q 5225 4575 5225 4275 
L 5225 3675 
Q 5200 3350 5525 3350 
L 6050 3375 
Q 5975 3175 5950 2950 
L 5325 2950 
Q 4775 2950 4775 3400 
L 4775 4400 
L 3975 4400 
Q 3975 3825 3837 3450 
Q 3700 3075 3275 2750 
Q 3175 2950 2925 3100 
Q 3425 3400 3475 3875 
Q 3525 4350 3500 4800 
L 5250 4800 
z
M 6100 50 
Q 5875 -175 5775 -450 
Q 5350 -325 5037 -162 
Q 4725 0 4400 225 
Q 4075 -50 3787 -225 
Q 3500 -400 3250 -550 
Q 3075 -275 2875 -125 
Q 3200 -25 3437 100 
Q 3675 225 4075 525 
Q 3800 875 3612 1287 
Q 3425 1700 3325 2125 
L 3775 2125 
Q 3875 1675 4037 1375 
Q 4200 1075 4400 850 
Q 4850 1375 5050 2125 
L 3925 2125 
Q 3525 2125 3125 2100 
L 3125 2550 
Q 3550 2525 3925 2525 
L 5650 2525 
Q 5550 2075 5300 1500 
Q 5050 925 4725 550 
Q 4975 350 5325 225 
Q 5675 100 6100 50 
z
M 1800 -500 
Q 1750 -175 1625 100 
Q 1975 75 2137 100 
Q 2300 125 2300 475 
L 2300 1625 
L 1375 1625 
Q 1300 925 1187 475 
Q 1075 25 825 -500 
Q 625 -275 375 -175 
Q 625 200 762 787 
Q 900 1375 912 2125 
Q 925 2875 925 3650 
Q 925 4425 900 4800 
L 2775 4800 
Q 2750 4300 2750 3825 
L 2750 275 
Q 2750 -200 2537 -300 
Q 2325 -400 1800 -500 
z
M 1400 4400 
L 1400 3425 
L 2300 3425 
L 2300 4400 
L 1400 4400 
z
M 1400 3025 
L 1400 2025 
L 2300 2025 
L 2300 3025 
L 1400 3025 
z
" transform="scale(0.015625)"/>
       <path id="SimHei-7968" d="M 1125 2275 
Q 1500 2250 1875 2250 
L 4475 2250 
Q 4850 2250 5250 2275 
L 5250 1850 
Q 4825 1875 4500 1875 
L 1850 1875 
Q 1500 1875 1125 1850 
L 1125 2275 
z
M 1125 1050 
Q 825 1050 575 1025 
L 575 1450 
Q 825 1425 1125 1425 
L 5125 1425 
Q 5450 1425 5875 1450 
L 5875 1025 
Q 5450 1050 5125 1050 
L 3450 1050 
L 3450 -50 
Q 3450 -375 3212 -487 
Q 2975 -600 2600 -650 
Q 2575 -375 2400 -100 
Q 2750 -125 2875 -100 
Q 3000 -75 3000 100 
L 3000 1050 
L 1125 1050 
z
M 1025 -400 
Q 900 -200 650 -25 
Q 875 75 1212 262 
Q 1550 450 1850 800 
Q 2025 650 2275 450 
Q 2100 375 1787 125 
Q 1475 -125 1025 -400 
z
M 4150 350 
Q 4325 525 4425 750 
Q 5350 250 5725 25 
Q 5525 -175 5400 -400 
Q 5025 -100 4150 350 
z
M 5325 4050 
Q 5300 3725 5300 3387 
Q 5300 3050 5325 2700 
L 1050 2700 
Q 1075 3050 1075 3387 
Q 1075 3725 1050 4050 
L 2350 4050 
L 2350 4525 
L 1350 4525 
Q 800 4525 525 4500 
L 525 4925 
Q 875 4900 1400 4900 
L 4975 4900 
Q 5375 4900 5900 4925 
L 5900 4500 
Q 5375 4525 4975 4525 
L 3950 4525 
L 3950 4050 
L 5325 4050 
z
M 2775 4525 
L 2775 4050 
L 3525 4050 
L 3525 4525 
L 2775 4525 
z
M 1500 3675 
L 1500 3075 
L 2350 3075 
L 2350 3675 
L 1500 3675 
z
M 2775 3675 
L 2775 3075 
L 3525 3075 
L 3525 3675 
L 2775 3675 
z
M 3950 3675 
L 3950 3075 
L 4875 3075 
L 4875 3675 
L 3950 3675 
z
" transform="scale(0.015625)"/>
       <path id="SimHei-4ef7" d="M 3600 5175 
Q 4075 5050 4250 5000 
Q 4175 4900 4125 4800 
Q 4975 3350 6150 2875 
Q 5850 2650 5725 2400 
Q 4650 3025 3875 4375 
Q 3075 2900 2225 2150 
Q 2100 2350 1800 2550 
Q 2300 2825 2950 3825 
Q 3600 4825 3600 5175 
z
M 4425 2750 
L 4975 2750 
Q 4925 2325 4925 1900 
L 4925 250 
Q 4925 -125 4975 -525 
L 4425 -525 
Q 4450 -125 4450 275 
L 4450 1900 
Q 4450 2325 4425 2750 
z
M 3075 2700 
Q 3375 2650 3675 2650 
Q 3625 2075 3462 1075 
Q 3300 75 2500 -575 
Q 2350 -325 2000 -225 
Q 2775 350 2937 1287 
Q 3100 2225 3075 2700 
z
M 1550 5100 
Q 1900 5000 2175 4925 
Q 2000 4650 1625 3675 
L 1625 525 
Q 1625 -125 1650 -525 
L 1100 -525 
Q 1125 -125 1150 525 
L 1150 2925 
Q 900 2450 650 2100 
Q 525 2300 275 2475 
Q 600 2825 1025 3675 
Q 1450 4525 1550 5100 
z
" transform="scale(0.015625)"/>
       <path id="SimHei-683c" d="M 1350 4550 
Q 1350 4825 1300 5175 
L 1850 5175 
Q 1800 4850 1800 4550 
L 1800 3900 
Q 2275 3900 2450 3925 
L 2450 3475 
Q 2275 3500 1800 3500 
L 1800 2800 
Q 1925 2875 2100 3025 
Q 2325 2675 2525 2275 
Q 2325 2150 2150 2025 
Q 1950 2450 1800 2700 
L 1800 350 
Q 1800 -200 1825 -500 
L 1325 -500 
Q 1350 -200 1350 350 
L 1350 2475 
Q 1100 1825 625 1100 
Q 475 1400 325 1575 
Q 650 1975 900 2487 
Q 1150 3000 1250 3500 
Q 900 3500 475 3475 
L 475 3925 
Q 925 3900 1350 3900 
L 1350 4550 
z
M 3675 4050 
Q 3925 3375 4350 2975 
Q 4750 3375 5000 4050 
L 3675 4050 
z
M 3525 1350 
L 3525 375 
L 5050 375 
L 5050 1350 
L 3525 1350 
z
M 3600 5150 
Q 3875 5025 4175 4950 
Q 4025 4775 3850 4425 
L 5625 4425 
Q 5450 3900 5212 3450 
Q 4975 3000 4700 2700 
Q 5025 2475 5412 2362 
Q 5800 2250 6175 2225 
Q 6000 1975 5900 1675 
Q 5475 1800 5100 1962 
Q 4725 2125 4350 2375 
Q 3950 2100 3587 1937 
Q 3225 1775 2600 1525 
Q 2500 1725 2275 1975 
Q 2825 2100 3275 2287 
Q 3725 2475 4000 2700 
Q 3650 3100 3425 3650 
Q 3200 3325 2900 2900 
Q 2700 3075 2500 3200 
Q 2875 3575 3162 4112 
Q 3450 4650 3600 5150 
z
M 3000 1725 
L 5575 1725 
Q 5550 1425 5550 650 
Q 5550 -125 5575 -500 
L 5050 -500 
L 5050 0 
L 3525 0 
L 3525 -525 
L 3000 -525 
Q 3025 -125 3025 637 
Q 3025 1400 3000 1725 
z
" transform="scale(0.015625)"/>
       <path id="SimHei-53" d="M 2925 1300 
Q 2925 725 2562 387 
Q 2200 50 1575 50 
Q 950 50 600 400 
Q 250 750 250 1275 
L 250 1450 
L 825 1450 
L 825 1300 
Q 825 925 1050 725 
Q 1275 525 1575 525 
Q 1975 525 2162 737 
Q 2350 950 2350 1250 
Q 2350 1500 2125 1712 
Q 1900 1925 1475 2100 
Q 875 2325 612 2600 
Q 350 2875 350 3250 
Q 350 3775 712 4100 
Q 1075 4425 1575 4425 
Q 2225 4425 2512 4037 
Q 2800 3650 2800 3200 
L 2225 3200 
Q 2250 3475 2075 3700 
Q 1900 3925 1575 3925 
Q 1275 3925 1100 3762 
Q 925 3600 925 3325 
Q 925 3100 1062 2937 
Q 1200 2775 1775 2550 
Q 2325 2325 2625 2012 
Q 2925 1700 2925 1300 
z
" transform="scale(0.015625)"/>
       <path id="SimHei-74" d="M 2775 175 
Q 2650 125 2487 87 
Q 2325 50 2050 50 
Q 1600 50 1325 300 
Q 1050 550 1050 1000 
L 1050 2500 
L 200 2500 
L 200 2900 
L 1050 2900 
L 1050 3875 
L 1550 3875 
L 1550 2900 
L 2575 2900 
L 2575 2500 
L 1550 2500 
L 1550 975 
Q 1550 775 1650 637 
Q 1750 500 2025 500 
Q 2300 500 2475 550 
Q 2650 600 2775 675 
L 2775 175 
z
" transform="scale(0.015625)"/>
       <path id="SimHei-6f" d="M 2950 1500 
Q 2950 850 2550 450 
Q 2150 50 1600 50 
Q 1050 50 650 450 
Q 250 850 250 1500 
Q 250 2150 650 2550 
Q 1050 2950 1600 2950 
Q 2150 2950 2550 2550 
Q 2950 2150 2950 1500 
z
M 2400 1500 
Q 2400 2000 2150 2250 
Q 1900 2500 1600 2500 
Q 1300 2500 1050 2250 
Q 800 2000 800 1500 
Q 800 1000 1050 750 
Q 1300 500 1600 500 
Q 1900 500 2150 750 
Q 2400 1000 2400 1500 
z
" transform="scale(0.015625)"/>
       <path id="SimHei-63" d="M 2875 1225 
Q 2875 700 2512 375 
Q 2150 50 1600 50 
Q 1050 50 650 437 
Q 250 825 250 1500 
Q 250 2175 650 2562 
Q 1050 2950 1600 2950 
Q 2150 2950 2475 2662 
Q 2800 2375 2800 1975 
L 2250 1975 
Q 2225 2275 2037 2387 
Q 1850 2500 1600 2500 
Q 1300 2500 1050 2262 
Q 800 2025 800 1500 
Q 800 975 1050 737 
Q 1300 500 1600 500 
Q 1925 500 2125 675 
Q 2325 850 2325 1225 
L 2875 1225 
z
" transform="scale(0.015625)"/>
       <path id="SimHei-6b" d="M 2950 100 
L 2375 100 
L 1475 1625 
L 900 1075 
L 900 100 
L 400 100 
L 400 4375 
L 900 4375 
L 900 1650 
L 2150 2900 
L 2775 2900 
L 1800 1950 
L 2950 100 
z
" transform="scale(0.015625)"/>
       <path id="SimHei-50" d="M 2975 3075 
Q 2975 2475 2625 2125 
Q 2275 1775 1650 1775 
L 925 1775 
L 925 100 
L 350 100 
L 350 4375 
L 1650 4375 
Q 2275 4375 2625 4025 
Q 2975 3675 2975 3075 
z
M 2400 3075 
Q 2400 3550 2175 3725 
Q 1950 3900 1500 3900 
L 925 3900 
L 925 2250 
L 1500 2250 
Q 1950 2250 2175 2425 
Q 2400 2600 2400 3075 
z
" transform="scale(0.015625)"/>
       <path id="SimHei-72" d="M 2525 2400 
Q 2050 2475 1725 2262 
Q 1400 2050 1175 1525 
L 1175 100 
L 675 100 
L 675 2900 
L 1175 2900 
L 1175 2175 
Q 1400 2575 1737 2762 
Q 2075 2950 2525 2950 
L 2525 2400 
z
" transform="scale(0.015625)"/>
       <path id="SimHei-24" d="M 2750 1300 
Q 2750 650 2425 350 
Q 2100 50 1750 50 
L 1750 -575 
L 1400 -575 
L 1400 50 
Q 975 50 662 400 
Q 350 750 350 1475 
L 925 1475 
Q 925 850 1100 687 
Q 1275 525 1400 525 
L 1400 2150 
Q 800 2475 625 2737 
Q 450 3000 450 3350 
Q 450 3800 712 4087 
Q 975 4375 1400 4425 
L 1400 4900 
L 1750 4900 
L 1750 4425 
Q 2175 4425 2437 4087 
Q 2700 3750 2700 3250 
L 2150 3250 
Q 2150 3625 2012 3787 
Q 1875 3950 1750 3950 
L 1750 2550 
Q 2150 2350 2450 2050 
Q 2750 1750 2750 1300 
z
M 1400 2750 
L 1400 3950 
Q 1250 3950 1112 3812 
Q 975 3675 975 3400 
Q 975 3225 1050 3062 
Q 1125 2900 1400 2750 
z
M 2200 1175 
Q 2200 1450 2075 1625 
Q 1950 1800 1750 1950 
L 1750 525 
Q 1900 550 2050 675 
Q 2200 800 2200 1175 
z
" transform="scale(0.015625)"/>
      </defs>
      <use xlink:href="#SimHei-80a1"/>
      <use xlink:href="#SimHei-7968" x="100"/>
      <use xlink:href="#SimHei-4ef7" x="200"/>
      <use xlink:href="#SimHei-683c" x="300"/>
      <use xlink:href="#SimHei-20" x="400"/>
      <use xlink:href="#SimHei-53" x="450"/>
      <use xlink:href="#SimHei-74" x="500"/>
      <use xlink:href="#SimHei-6f" x="550"/>
      <use xlink:href="#SimHei-63" x="600"/>
      <use xlink:href="#SimHei-6b" x="650"/>
      <use xlink:href="#SimHei-20" x="700"/>
      <use xlink:href="#SimHei-50" x="750"/>
      <use xlink:href="#SimHei-72" x="800"/>
      <use xlink:href="#SimHei-69" x="850"/>
      <use xlink:href="#SimHei-63" x="900"/>
      <use xlink:href="#SimHei-65" x="950"/>
      <use xlink:href="#SimHei-20" x="1000"/>
      <use xlink:href="#SimHei-28" x="1050"/>
      <use xlink:href="#SimHei-24" x="1100"/>
      <use xlink:href="#SimHei-29" x="1150"/>
     </g>
    </g>
   </g>
   <g id="line2d_15">
    <path d="M 69.218182 150.4267 
L 69.826909 147.059823 
L 70.435636 147.99702 
L 71.044364 143.606794 
L 71.653091 133.283244 
L 72.870545 136.457455 
L 73.479273 125.753081 
L 74.088 120.55118 
L 74.696727 123.733417 
L 75.305455 120.055783 
L 76.522909 126.353821 
L 77.131636 124.713729 
L 78.349091 149.374519 
L 78.957818 153.185871 
L 79.566545 160.051142 
L 80.175273 157.92108 
L 80.784 164.075938 
L 81.392727 173.648953 
L 82.001455 163.714349 
L 82.610182 165.244728 
L 83.218909 164.787002 
L 83.827636 174.444369 
L 84.436364 178.134358 
L 85.045091 177.382491 
L 85.653818 185.184269 
L 86.262545 182.637676 
L 86.871273 186.708983 
L 87.48 188.686171 
L 88.088727 192.764717 
L 88.697455 180.209424 
L 89.306182 180.300912 
L 89.914909 187.470392 
L 90.523636 181.894938 
L 91.132364 190.170179 
L 91.741091 188.75444 
L 92.349818 202.037667 
L 92.958545 211.040508 
L 93.567273 209.706124 
L 94.176 204.700578 
L 94.784727 203.538992 
L 95.393455 204.322891 
L 96.002182 206.363861 
L 96.610909 216.385724 
L 97.219636 221.265042 
L 97.828364 224.387389 
L 98.437091 217.2219 
L 99.045818 214.892753 
L 99.654545 226.843164 
L 100.263273 224.646426 
L 100.872 227.256629 
L 101.480727 231.845007 
L 102.089455 227.698883 
L 103.306909 214.397968 
L 103.915636 220.086434 
L 104.524364 222.182367 
L 105.133091 219.936965 
L 105.741818 213.32443 
L 106.350545 216.572416 
L 106.959273 217.830867 
L 108.176727 233.43818 
L 108.785455 227.930638 
L 109.394182 218.737639 
L 110.002909 219.225745 
L 110.611636 212.4235 
L 111.220364 209.972224 
L 111.829091 214.345038 
L 112.437818 211.895391 
L 113.046545 201.470121 
L 113.655273 201.71296 
L 114.264 191.107339 
L 114.872727 208.864752 
L 115.481455 203.293652 
L 116.090182 202.703621 
L 116.698909 204.730382 
L 117.307636 204.1084 
L 117.916364 217.580734 
L 118.525091 219.069736 
L 119.133818 216.64912 
L 119.742545 206.631514 
L 120.351273 210.144504 
L 120.96 215.624715 
L 121.568727 219.025773 
L 122.177455 212.820905 
L 122.786182 210.592532 
L 123.394909 214.183405 
L 124.003636 210.704325 
L 124.612364 210.046305 
L 125.221091 203.48054 
L 125.829818 208.239265 
L 126.438545 210.460257 
L 127.047273 213.118083 
L 127.656 223.038223 
L 128.873455 219.261521 
L 129.482182 219.226861 
L 130.090909 220.816962 
L 130.699636 230.410766 
L 131.917091 235.585047 
L 132.525818 241.023121 
L 133.134545 242.116364 
L 133.743273 239.377587 
L 134.352 226.592457 
L 134.960727 225.409116 
L 135.569455 223.663363 
L 136.178182 224.16798 
L 136.786909 237.173982 
L 137.395636 237.353701 
L 138.004364 236.945443 
L 138.613091 220.248854 
L 139.221818 221.552734 
L 139.830545 219.508757 
L 140.439273 219.744043 
L 141.048 227.665691 
L 141.656727 219.919298 
L 142.874182 209.460622 
L 143.482909 215.624721 
L 144.091636 206.116163 
L 144.700364 215.618327 
L 145.309091 211.640435 
L 145.917818 196.792874 
L 146.526545 203.507024 
L 147.135273 207.345559 
L 147.744 206.670093 
L 148.352727 210.0828 
L 148.961455 220.593659 
L 149.570182 220.128919 
L 150.178909 227.32953 
L 150.787636 224.119379 
L 151.396364 230.35151 
L 152.005091 219.845593 
L 152.613818 225.154718 
L 153.222545 227.337746 
L 153.831273 221.823484 
L 154.44 230.166649 
L 155.048727 228.624858 
L 155.657455 219.764655 
L 156.266182 230.660655 
L 156.874909 229.409152 
L 157.483636 227.647589 
L 158.092364 222.348161 
L 159.309818 239.683029 
L 159.918545 236.145154 
L 161.744727 230.085859 
L 162.353455 234.695269 
L 162.962182 233.120984 
L 163.570909 231.134452 
L 164.179636 235.976539 
L 164.788364 223.329763 
L 165.397091 220.117983 
L 166.005818 228.192993 
L 166.614545 223.742677 
L 167.223273 230.349359 
L 167.832 225.014265 
L 168.440727 217.16096 
L 169.049455 222.723789 
L 169.658182 216.193738 
L 170.266909 213.395786 
L 170.875636 207.823618 
L 171.484364 194.96659 
L 172.093091 196.629904 
L 173.310545 207.768346 
L 173.919273 213.298151 
L 174.528 213.820769 
L 175.136727 211.508339 
L 175.745455 209.632847 
L 176.354182 204.025952 
L 176.962909 203.937822 
L 177.571636 194.085335 
L 178.180364 195.879258 
L 178.789091 177.441141 
L 179.397818 173.200181 
L 180.006545 179.01025 
L 180.615273 186.269079 
L 181.224 182.998737 
L 181.832727 184.513434 
L 182.441455 179.673726 
L 183.050182 176.465981 
L 183.658909 176.959637 
L 184.267636 182.699457 
L 184.876364 192.967543 
L 185.485091 195.994154 
L 186.093818 190.189228 
L 186.702545 188.738037 
L 187.311273 197.182025 
L 187.92 196.008153 
L 188.528727 193.396357 
L 189.137455 199.387406 
L 189.746182 198.345412 
L 190.354909 197.950856 
L 190.963636 205.698249 
L 191.572364 203.273059 
L 192.181091 199.471895 
L 193.398545 184.987667 
L 194.007273 194.32592 
L 194.616 200.682777 
L 196.442182 190.217974 
L 197.050909 164.103013 
L 197.659636 160.233347 
L 198.877091 146.069637 
L 199.485818 141.654313 
L 200.094545 143.791302 
L 200.703273 138.646782 
L 201.312 143.885222 
L 201.920727 145.490449 
L 202.529455 148.780387 
L 203.138182 148.22542 
L 203.746909 132.535975 
L 204.355636 145.192855 
L 204.964364 140.541179 
L 205.573091 151.472647 
L 206.181818 154.671542 
L 206.790545 147.29031 
L 207.399273 146.854601 
L 208.008 154.159876 
L 208.616727 159.008418 
L 209.225455 154.401902 
L 209.834182 159.352545 
L 210.442909 157.885324 
L 211.051636 157.576424 
L 211.660364 161.993165 
L 212.269091 147.460874 
L 212.877818 143.163982 
L 213.486545 156.891002 
L 214.095273 155.627159 
L 214.704 160.112944 
L 215.312727 154.334897 
L 215.921455 159.706839 
L 216.530182 160.484557 
L 217.138909 157.061603 
L 217.747636 151.193256 
L 218.356364 159.329223 
L 218.965091 161.596572 
L 219.573818 164.815892 
L 220.182545 169.244352 
L 220.791273 157.277578 
L 221.4 154.532491 
L 222.008727 163.079138 
L 222.617455 156.857596 
L 223.226182 142.47299 
L 223.834909 135.474633 
L 224.443636 145.773375 
L 225.052364 149.055658 
L 225.661091 140.468157 
L 226.269818 145.264951 
L 226.878545 142.256611 
L 227.487273 137.00591 
L 228.096 143.288921 
L 228.704727 143.692402 
L 229.313455 165.662677 
L 229.922182 172.606282 
L 230.530909 174.318264 
L 231.139636 182.77611 
L 231.748364 171.71114 
L 232.357091 181.405064 
L 232.965818 184.387817 
L 233.574545 183.501618 
L 234.183273 173.732238 
L 234.792 183.46494 
L 235.400727 175.580669 
L 236.009455 175.511307 
L 236.618182 182.164265 
L 237.226909 179.03199 
L 237.835636 177.682704 
L 238.444364 181.751152 
L 239.053091 181.278013 
L 239.661818 183.889783 
L 240.270545 183.120329 
L 240.879273 178.63221 
L 241.488 167.881716 
L 242.096727 176.271998 
L 242.705455 161.813662 
L 243.314182 175.045495 
L 243.922909 176.07434 
L 244.531636 172.08655 
L 245.140364 170.181904 
L 245.749091 174.402747 
L 246.357818 175.813461 
L 246.966545 179.155168 
L 247.575273 183.150058 
L 248.184 177.391202 
L 248.792727 174.971245 
L 249.401455 179.667992 
L 250.010182 173.570237 
L 250.618909 171.487269 
L 251.227636 165.977447 
L 251.836364 161.709636 
L 252.445091 167.328811 
L 253.053818 171.125885 
L 254.271273 161.923234 
L 254.88 162.064912 
L 255.488727 161.269632 
L 256.097455 152.609239 
L 256.706182 156.619086 
L 257.314909 152.910697 
L 258.532364 155.756727 
L 259.141091 148.30889 
L 260.358545 137.199761 
L 260.967273 128.350837 
L 261.576 128.208467 
L 262.184727 123.585987 
L 262.793455 125.689067 
L 263.402182 123.491771 
L 264.010909 124.373919 
L 264.619636 123.716452 
L 265.228364 119.6823 
L 265.837091 125.228444 
L 266.445818 111.04562 
L 267.054545 117.864705 
L 267.663273 126.094837 
L 268.272 118.244817 
L 268.880727 112.878691 
L 270.098182 104.389108 
L 270.706909 104.472121 
L 271.315636 110.553978 
L 271.924364 110.040152 
L 272.533091 114.630156 
L 273.141818 108.020504 
L 273.750545 109.017303 
L 274.359273 114.612768 
L 274.968 116.791217 
L 275.576727 113.992245 
L 276.185455 117.813338 
L 276.794182 123.386593 
L 278.011636 120.074352 
L 279.229091 126.703401 
L 279.837818 125.130498 
L 281.055273 144.486253 
L 281.664 149.356082 
L 282.272727 150.802891 
L 282.881455 148.695467 
L 283.490182 138.695063 
L 284.098909 132.88159 
L 284.707636 133.965701 
L 285.316364 134.094599 
L 285.925091 140.890042 
L 286.533818 141.015529 
L 287.142545 142.972143 
L 287.751273 140.784661 
L 288.36 146.391879 
L 288.968727 142.871593 
L 289.577455 132.482232 
L 290.186182 133.219441 
L 290.794909 130.496519 
L 291.403636 125.818518 
L 292.012364 128.53811 
L 292.621091 127.019144 
L 293.229818 126.933789 
L 293.838545 126.271711 
L 294.447273 131.511402 
L 295.056 131.345265 
L 295.664727 127.969684 
L 296.273455 118.1334 
L 296.882182 111.631177 
L 297.490909 97.036265 
L 298.099636 102.237575 
L 298.708364 96.324726 
L 299.317091 95.08198 
L 299.925818 80.238843 
L 301.143273 91.409614 
L 301.752 95.472476 
L 302.360727 109.868874 
L 302.969455 113.432598 
L 303.578182 118.578225 
L 304.186909 117.558811 
L 304.795636 115.242288 
L 305.404364 102.525043 
L 306.013091 96.082787 
L 306.621818 99.993212 
L 307.230545 106.082934 
L 307.839273 102.748559 
L 308.448 111.697493 
L 309.056727 99.28332 
L 309.665455 91.288724 
L 310.274182 94.468936 
L 310.882909 106.081072 
L 311.491636 96.904122 
L 312.100364 97.680507 
L 312.709091 89.29022 
L 313.317818 100.097725 
L 313.926545 104.160468 
L 314.535273 104.124924 
L 315.144 103.806476 
L 315.752727 106.857154 
L 316.361455 102.635291 
L 316.970182 109.871941 
L 317.578909 110.837031 
L 318.187636 110.021632 
L 318.796364 106.534612 
L 319.405091 101.711074 
L 320.013818 109.334233 
L 320.622545 119.732916 
L 321.231273 111.072442 
L 321.84 108.819919 
L 322.448727 113.893383 
L 323.057455 103.379213 
L 323.666182 102.595136 
L 324.274909 94.601509 
L 324.883636 94.143848 
L 326.101091 68.277262 
L 326.709818 69.964815 
L 327.318545 63.379218 
L 327.927273 59.004668 
L 328.536 49.727675 
L 329.144727 56.268214 
L 329.753455 51.617953 
L 330.362182 44.443636 
L 330.970909 56.364896 
L 331.579636 64.385375 
L 332.188364 78.207898 
L 332.797091 80.034018 
L 333.405818 75.170303 
L 334.014545 64.986879 
L 334.623273 64.484643 
L 335.232 53.445401 
L 335.840727 62.80014 
L 336.449455 74.346174 
L 337.058182 74.722692 
L 337.666909 72.119382 
L 338.275636 72.340997 
L 338.884364 86.354736 
L 339.493091 86.958818 
L 340.101818 95.8009 
L 340.710545 91.26166 
L 341.319273 88.776748 
L 341.928 95.147534 
L 342.536727 98.630677 
L 343.145455 105.810341 
L 343.754182 106.235199 
L 344.362909 99.76096 
L 344.971636 106.442504 
L 345.580364 103.025927 
L 346.189091 106.620171 
L 346.797818 111.994499 
L 347.406545 112.719983 
L 348.015273 119.737164 
L 348.624 123.489964 
L 349.232727 131.609537 
L 349.841455 118.292045 
L 350.450182 118.053018 
L 351.058909 122.795966 
L 351.667636 121.345546 
L 352.276364 122.106939 
L 352.885091 123.604737 
L 353.493818 119.441732 
L 354.102545 114.307119 
L 355.32 121.806081 
L 355.928727 123.670464 
L 356.537455 139.273571 
L 357.146182 149.543987 
L 357.754909 140.278906 
L 358.363636 129.128825 
L 358.972364 130.816866 
L 359.581091 126.908791 
L 360.189818 124.799045 
L 360.798545 103.929474 
L 361.407273 96.340661 
L 362.016 97.207725 
L 362.624727 103.684663 
L 363.233455 114.573634 
L 363.842182 113.194497 
L 364.450909 118.321268 
L 365.059636 127.961727 
L 365.668364 132.344391 
L 366.277091 139.675445 
L 366.885818 128.239497 
L 367.494545 122.26348 
L 368.103273 122.317521 
L 368.712 112.286019 
L 369.320727 111.761593 
L 369.929455 117.599634 
L 370.538182 107.275445 
L 371.146909 103.622553 
L 371.755636 110.653316 
L 372.364364 111.943488 
L 372.973091 117.878689 
L 373.581818 127.251718 
L 373.581818 127.251718 
" clip-path="url(#pe508f5939a)" style="fill: none; stroke: #1f77b4; stroke-width: 1.5; stroke-linecap: square"/>
   </g>
   <g id="patch_3">
    <path d="M 54 252 
L 54 34.56 
" style="fill: none; stroke: #000000; stroke-width: 0.8; stroke-linejoin: miter; stroke-linecap: square"/>
   </g>
   <g id="patch_4">
    <path d="M 388.8 252 
L 388.8 34.56 
" style="fill: none; stroke: #000000; stroke-width: 0.8; stroke-linejoin: miter; stroke-linecap: square"/>
   </g>
   <g id="patch_5">
    <path d="M 54 252 
L 388.8 252 
" style="fill: none; stroke: #000000; stroke-width: 0.8; stroke-linejoin: miter; stroke-linecap: square"/>
   </g>
   <g id="patch_6">
    <path d="M 54 34.56 
L 388.8 34.56 
" style="fill: none; stroke: #000000; stroke-width: 0.8; stroke-linejoin: miter; stroke-linecap: square"/>
   </g>
  </g>
 </g>
 <defs>
  <clipPath id="pe508f5939a">
   <rect x="54" y="34.56" width="334.8" height="217.44"/>
  </clipPath>
 </defs>
</svg>
