<?xml version="1.0" encoding="utf-8" standalone="no"?>
<!DOCTYPE svg PUBLIC "-//W3C//DTD SVG 1.1//EN"
  "http://www.w3.org/Graphics/SVG/1.1/DTD/svg11.dtd">
<svg xmlns:xlink="http://www.w3.org/1999/xlink" width="432pt" height="288pt" viewBox="0 0 432 288" xmlns="http://www.w3.org/2000/svg" version="1.1">
 <metadata>
  <rdf:RDF xmlns:dc="http://purl.org/dc/elements/1.1/" xmlns:cc="http://creativecommons.org/ns#" xmlns:rdf="http://www.w3.org/1999/02/22-rdf-syntax-ns#">
   <cc:Work>
    <dc:type rdf:resource="http://purl.org/dc/dcmitype/StillImage"/>
    <dc:date>2021-12-15T16:18:26.715265</dc:date>
    <dc:format>image/svg+xml</dc:format>
    <dc:creator>
     <cc:Agent>
      <dc:title>Matplotlib v3.5.0, https://matplotlib.org/</dc:title>
     </cc:Agent>
    </dc:creator>
   </cc:Work>
  </rdf:RDF>
 </metadata>
 <defs>
  <style type="text/css">*{stroke-linejoin: round; stroke-linecap: butt}</style>
 </defs>
 <g id="figure_1">
  <g id="patch_1">
   <path d="M 0 288 
L 432 288 
L 432 0 
L 0 0 
L 0 288 
z
" style="fill: none"/>
  </g>
  <g id="axes_1">
   <g id="patch_2">
    <path d="M 54 252 
L 388.8 252 
L 388.8 34.56 
L 54 34.56 
z
" style="fill: #ffffff"/>
   </g>
   <g id="matplotlib.axis_1">
    <g id="xtick_1">
     <g id="line2d_1">
      <defs>
       <path id="mf3aecba0c7" d="M 0 0 
L 0 3.5 
" style="stroke: #000000; stroke-width: 0.8"/>
      </defs>
      <g>
       <use xlink:href="#mf3aecba0c7" x="69.218182" y="252" style="stroke: #000000; stroke-width: 0.8"/>
      </g>
     </g>
     <g id="text_1">
      <!-- 0 -->
      <g transform="translate(66.718182 265.835938)scale(0.1 -0.1)">
       <defs>
        <path id="SimHei-30" d="M 2975 2250 
Q 2975 1350 2650 700 
Q 2325 50 1600 50 
Q 875 50 537 700 
Q 200 1350 200 2250 
Q 200 3150 537 3787 
Q 875 4425 1600 4425 
Q 2325 4425 2650 3787 
Q 2975 3150 2975 2250 
z
M 2375 2250 
Q 2375 3050 2187 3500 
Q 2000 3950 1600 3950 
Q 1200 3950 1000 3500 
Q 800 3050 800 2250 
Q 800 1450 1000 987 
Q 1200 525 1600 525 
Q 2000 525 2187 987 
Q 2375 1450 2375 2250 
z
" transform="scale(0.015625)"/>
       </defs>
       <use xlink:href="#SimHei-30"/>
      </g>
     </g>
    </g>
    <g id="xtick_2">
     <g id="line2d_2">
      <g>
       <use xlink:href="#mf3aecba0c7" x="130.090909" y="252" style="stroke: #000000; stroke-width: 0.8"/>
      </g>
     </g>
     <g id="text_2">
      <!-- 100 -->
      <g transform="translate(122.590909 265.835938)scale(0.1 -0.1)">
       <defs>
        <path id="SimHei-31" d="M 1950 100 
L 1375 100 
L 1375 3425 
L 625 3425 
L 625 3725 
Q 1075 3725 1325 3900 
Q 1575 4075 1650 4425 
L 1950 4425 
L 1950 100 
z
" transform="scale(0.015625)"/>
       </defs>
       <use xlink:href="#SimHei-31"/>
       <use xlink:href="#SimHei-30" x="50"/>
       <use xlink:href="#SimHei-30" x="100"/>
      </g>
     </g>
    </g>
    <g id="xtick_3">
     <g id="line2d_3">
      <g>
       <use xlink:href="#mf3aecba0c7" x="190.963636" y="252" style="stroke: #000000; stroke-width: 0.8"/>
      </g>
     </g>
     <g id="text_3">
      <!-- 200 -->
      <g transform="translate(183.463636 265.835938)scale(0.1 -0.1)">
       <defs>
        <path id="SimHei-32" d="M 2850 100 
L 300 100 
L 300 500 
Q 450 900 712 1237 
Q 975 1575 1475 2000 
Q 1850 2325 2012 2600 
Q 2175 2875 2175 3200 
Q 2175 3525 2037 3737 
Q 1900 3950 1600 3950 
Q 1350 3950 1162 3725 
Q 975 3500 975 2925 
L 400 2925 
Q 425 3650 737 4037 
Q 1050 4425 1625 4425 
Q 2175 4425 2475 4087 
Q 2775 3750 2775 3175 
Q 2775 2700 2500 2350 
Q 2225 2000 1825 1650 
Q 1375 1250 1200 1050 
Q 1025 850 875 575 
L 2850 575 
L 2850 100 
z
" transform="scale(0.015625)"/>
       </defs>
       <use xlink:href="#SimHei-32"/>
       <use xlink:href="#SimHei-30" x="50"/>
       <use xlink:href="#SimHei-30" x="100"/>
      </g>
     </g>
    </g>
    <g id="xtick_4">
     <g id="line2d_4">
      <g>
       <use xlink:href="#mf3aecba0c7" x="251.836364" y="252" style="stroke: #000000; stroke-width: 0.8"/>
      </g>
     </g>
     <g id="text_4">
      <!-- 300 -->
      <g transform="translate(244.336364 265.835938)scale(0.1 -0.1)">
       <defs>
        <path id="SimHei-33" d="M 2825 1300 
Q 2825 725 2462 387 
Q 2100 50 1550 50 
Q 1000 50 637 387 
Q 275 725 275 1425 
L 850 1425 
Q 850 950 1037 737 
Q 1225 525 1550 525 
Q 1875 525 2050 725 
Q 2225 925 2225 1350 
Q 2225 1700 2037 1900 
Q 1850 2100 1375 2100 
L 1375 2525 
Q 1775 2525 1962 2725 
Q 2150 2925 2150 3325 
Q 2150 3625 2012 3800 
Q 1875 3975 1575 3975 
Q 1275 3975 1112 3762 
Q 950 3550 925 3150 
L 375 3150 
Q 425 3725 737 4075 
Q 1050 4425 1575 4425 
Q 2125 4425 2425 4112 
Q 2725 3800 2725 3350 
Q 2725 2925 2575 2687 
Q 2425 2450 2075 2325 
Q 2425 2250 2625 1975 
Q 2825 1700 2825 1300 
z
" transform="scale(0.015625)"/>
       </defs>
       <use xlink:href="#SimHei-33"/>
       <use xlink:href="#SimHei-30" x="50"/>
       <use xlink:href="#SimHei-30" x="100"/>
      </g>
     </g>
    </g>
    <g id="xtick_5">
     <g id="line2d_5">
      <g>
       <use xlink:href="#mf3aecba0c7" x="312.709091" y="252" style="stroke: #000000; stroke-width: 0.8"/>
      </g>
     </g>
     <g id="text_5">
      <!-- 400 -->
      <g transform="translate(305.209091 265.835938)scale(0.1 -0.1)">
       <defs>
        <path id="SimHei-34" d="M 2975 1200 
L 2450 1200 
L 2450 100 
L 1875 100 
L 1875 1200 
L 200 1200 
L 200 1675 
L 1875 4425 
L 2450 4425 
L 2450 1675 
L 2975 1675 
L 2975 1200 
z
M 1875 1675 
L 1875 3525 
L 750 1675 
L 1875 1675 
z
" transform="scale(0.015625)"/>
       </defs>
       <use xlink:href="#SimHei-34"/>
       <use xlink:href="#SimHei-30" x="50"/>
       <use xlink:href="#SimHei-30" x="100"/>
      </g>
     </g>
    </g>
    <g id="xtick_6">
     <g id="line2d_6">
      <g>
       <use xlink:href="#mf3aecba0c7" x="373.581818" y="252" style="stroke: #000000; stroke-width: 0.8"/>
      </g>
     </g>
     <g id="text_6">
      <!-- 500 -->
      <g transform="translate(366.081818 265.835938)scale(0.1 -0.1)">
       <defs>
        <path id="SimHei-35" d="M 2825 1650 
Q 2825 900 2462 475 
Q 2100 50 1500 50 
Q 975 50 637 400 
Q 300 750 275 1350 
L 850 1350 
Q 850 975 1025 750 
Q 1200 525 1525 525 
Q 1850 525 2037 800 
Q 2225 1075 2225 1650 
Q 2225 2150 2062 2387 
Q 1900 2625 1625 2625 
Q 1400 2625 1237 2525 
Q 1075 2425 925 2175 
L 425 2175 
L 575 4375 
L 2725 4375 
L 2725 3900 
L 1050 3900 
L 950 2750 
Q 1100 2900 1275 2975 
Q 1450 3050 1750 3050 
Q 2225 3050 2525 2687 
Q 2825 2325 2825 1650 
z
" transform="scale(0.015625)"/>
       </defs>
       <use xlink:href="#SimHei-35"/>
       <use xlink:href="#SimHei-30" x="50"/>
       <use xlink:href="#SimHei-30" x="100"/>
      </g>
     </g>
    </g>
    <g id="text_7">
     <!-- Elapsed Time (min) -->
     <g transform="translate(176.4 278.898438)scale(0.1 -0.1)">
      <defs>
       <path id="SimHei-45" d="M 2925 100 
L 375 100 
L 375 4375 
L 2800 4375 
L 2800 3900 
L 950 3900 
L 950 2575 
L 2650 2575 
L 2650 2100 
L 950 2100 
L 950 575 
L 2925 575 
L 2925 100 
z
" transform="scale(0.015625)"/>
       <path id="SimHei-6c" d="M 1850 100 
L 1350 100 
L 1350 4375 
L 1850 4375 
L 1850 100 
z
" transform="scale(0.015625)"/>
       <path id="SimHei-61" d="M 2900 100 
L 2300 100 
Q 2250 150 2225 237 
Q 2200 325 2200 450 
Q 2025 250 1775 150 
Q 1525 50 1250 50 
Q 850 50 575 250 
Q 300 450 300 825 
Q 300 1200 550 1425 
Q 800 1650 1325 1725 
Q 1675 1775 1937 1850 
Q 2200 1925 2200 2050 
Q 2200 2200 2087 2350 
Q 1975 2500 1600 2500 
Q 1300 2500 1162 2387 
Q 1025 2275 975 2075 
L 425 2075 
Q 475 2475 787 2712 
Q 1100 2950 1600 2950 
Q 2150 2950 2425 2700 
Q 2700 2450 2700 2000 
L 2700 625 
Q 2700 475 2750 350 
Q 2800 225 2900 100 
z
M 2200 1025 
L 2200 1525 
Q 2050 1475 1912 1437 
Q 1775 1400 1450 1350 
Q 1075 1300 962 1175 
Q 850 1050 850 875 
Q 850 725 962 612 
Q 1075 500 1300 500 
Q 1525 500 1787 625 
Q 2050 750 2200 1025 
z
" transform="scale(0.015625)"/>
       <path id="SimHei-70" d="M 2850 1500 
Q 2850 775 2500 400 
Q 2150 25 1650 25 
Q 1375 25 1175 137 
Q 975 250 825 475 
L 825 -825 
L 325 -825 
L 325 2900 
L 825 2900 
L 825 2525 
Q 975 2750 1175 2850 
Q 1375 2950 1650 2950 
Q 2150 2950 2500 2587 
Q 2850 2225 2850 1500 
z
M 2300 1500 
Q 2300 1975 2112 2237 
Q 1925 2500 1550 2500 
Q 1250 2500 1037 2237 
Q 825 1975 825 1500 
Q 825 1025 1037 750 
Q 1250 475 1550 475 
Q 1925 475 2112 750 
Q 2300 1025 2300 1500 
z
" transform="scale(0.015625)"/>
       <path id="SimHei-73" d="M 2775 875 
Q 2775 475 2462 262 
Q 2150 50 1675 50 
Q 1075 50 750 287 
Q 425 525 425 975 
L 925 975 
Q 925 675 1137 575 
Q 1350 475 1650 475 
Q 1950 475 2100 587 
Q 2250 700 2250 875 
Q 2250 1000 2125 1125 
Q 2000 1250 1500 1325 
Q 925 1400 712 1612 
Q 500 1825 500 2175 
Q 500 2475 787 2712 
Q 1075 2950 1625 2950 
Q 2125 2950 2412 2725 
Q 2700 2500 2700 2125 
L 2200 2125 
Q 2200 2350 2037 2437 
Q 1875 2525 1625 2525 
Q 1300 2525 1162 2412 
Q 1025 2300 1025 2150 
Q 1025 1975 1150 1875 
Q 1275 1775 1675 1725 
Q 2325 1625 2550 1412 
Q 2775 1200 2775 875 
z
" transform="scale(0.015625)"/>
       <path id="SimHei-65" d="M 2875 1050 
Q 2825 600 2475 325 
Q 2125 50 1650 50 
Q 1050 50 662 437 
Q 275 825 275 1500 
Q 275 2175 662 2562 
Q 1050 2950 1650 2950 
Q 2175 2950 2512 2612 
Q 2850 2275 2850 1500 
L 825 1500 
Q 825 950 1062 725 
Q 1300 500 1650 500 
Q 1925 500 2100 637 
Q 2275 775 2325 1050 
L 2875 1050 
z
M 2275 1900 
Q 2225 2250 2050 2387 
Q 1875 2525 1600 2525 
Q 1350 2525 1150 2387 
Q 950 2250 850 1900 
L 2275 1900 
z
" transform="scale(0.015625)"/>
       <path id="SimHei-64" d="M 2775 100 
L 2275 100 
L 2275 475 
Q 2125 250 1925 150 
Q 1725 50 1450 50 
Q 950 50 600 412 
Q 250 775 250 1500 
Q 250 2225 600 2600 
Q 950 2975 1450 2975 
Q 1725 2975 1925 2862 
Q 2125 2750 2275 2525 
L 2275 4375 
L 2775 4375 
L 2775 100 
z
M 2275 1500 
Q 2275 1975 2062 2250 
Q 1850 2525 1550 2525 
Q 1175 2525 987 2250 
Q 800 1975 800 1500 
Q 800 1025 987 762 
Q 1175 500 1550 500 
Q 1850 500 2062 762 
Q 2275 1025 2275 1500 
z
" transform="scale(0.015625)"/>
       <path id="SimHei-20" transform="scale(0.015625)"/>
       <path id="SimHei-54" d="M 2875 3900 
L 1875 3900 
L 1875 100 
L 1300 100 
L 1300 3900 
L 300 3900 
L 300 4375 
L 2875 4375 
L 2875 3900 
z
" transform="scale(0.015625)"/>
       <path id="SimHei-69" d="M 1825 3700 
L 1325 3700 
L 1325 4350 
L 1825 4350 
L 1825 3700 
z
M 1825 100 
L 1325 100 
L 1325 2900 
L 1825 2900 
L 1825 100 
z
" transform="scale(0.015625)"/>
       <path id="SimHei-6d" d="M 3075 100 
L 2575 100 
L 2575 2125 
Q 2575 2275 2525 2375 
Q 2475 2475 2325 2475 
Q 2150 2475 2000 2287 
Q 1850 2100 1850 1800 
L 1850 100 
L 1350 100 
L 1350 2125 
Q 1350 2275 1300 2375 
Q 1250 2475 1100 2475 
Q 925 2475 775 2287 
Q 625 2100 625 1800 
L 625 100 
L 125 100 
L 125 2900 
L 625 2900 
L 625 2525 
Q 750 2725 925 2837 
Q 1100 2950 1300 2950 
Q 1500 2950 1637 2837 
Q 1775 2725 1825 2525 
Q 1950 2725 2112 2837 
Q 2275 2950 2475 2950 
Q 2775 2950 2925 2787 
Q 3075 2625 3075 2325 
L 3075 100 
z
" transform="scale(0.015625)"/>
       <path id="SimHei-28" d="M 3000 -225 
L 2725 -500 
Q 2100 100 1787 750 
Q 1475 1400 1475 2225 
Q 1475 3050 1787 3700 
Q 2100 4350 2725 4975 
L 3000 4700 
Q 2425 4150 2137 3562 
Q 1850 2975 1850 2225 
Q 1850 1475 2137 887 
Q 2425 300 3000 -225 
z
" transform="scale(0.015625)"/>
       <path id="SimHei-6e" d="M 2825 100 
L 2325 100 
L 2325 1900 
Q 2325 2200 2175 2375 
Q 2025 2550 1775 2550 
Q 1450 2550 1162 2212 
Q 875 1875 875 1375 
L 875 100 
L 375 100 
L 375 2900 
L 875 2900 
L 875 2375 
Q 1075 2650 1312 2800 
Q 1550 2950 1925 2950 
Q 2375 2950 2600 2700 
Q 2825 2450 2825 2075 
L 2825 100 
z
" transform="scale(0.015625)"/>
       <path id="SimHei-29" d="M 1700 2225 
Q 1700 1400 1387 750 
Q 1075 100 450 -500 
L 175 -225 
Q 750 300 1037 887 
Q 1325 1475 1325 2225 
Q 1325 2975 1037 3562 
Q 750 4150 175 4700 
L 450 4975 
Q 1075 4350 1387 3700 
Q 1700 3050 1700 2225 
z
" transform="scale(0.015625)"/>
      </defs>
      <use xlink:href="#SimHei-45"/>
      <use xlink:href="#SimHei-6c" x="50"/>
      <use xlink:href="#SimHei-61" x="100"/>
      <use xlink:href="#SimHei-70" x="150"/>
      <use xlink:href="#SimHei-73" x="200"/>
      <use xlink:href="#SimHei-65" x="250"/>
      <use xlink:href="#SimHei-64" x="300"/>
      <use xlink:href="#SimHei-20" x="350"/>
      <use xlink:href="#SimHei-54" x="400"/>
      <use xlink:href="#SimHei-69" x="450"/>
      <use xlink:href="#SimHei-6d" x="500"/>
      <use xlink:href="#SimHei-65" x="550"/>
      <use xlink:href="#SimHei-20" x="600"/>
      <use xlink:href="#SimHei-28" x="650"/>
      <use xlink:href="#SimHei-6d" x="700"/>
      <use xlink:href="#SimHei-69" x="750"/>
      <use xlink:href="#SimHei-6e" x="800"/>
      <use xlink:href="#SimHei-29" x="850"/>
     </g>
    </g>
   </g>
   <g id="matplotlib.axis_2">
    <g id="ytick_1">
     <g id="line2d_7">
      <defs>
       <path id="medc4b9be4d" d="M 0 0 
L -3.5 0 
" style="stroke: #000000; stroke-width: 0.8"/>
      </defs>
      <g>
       <use xlink:href="#medc4b9be4d" x="54" y="247.194146" style="stroke: #000000; stroke-width: 0.8"/>
      </g>
     </g>
     <g id="text_8">
      <!-- 22 -->
      <g transform="translate(37 250.612114)scale(0.1 -0.1)">
       <use xlink:href="#SimHei-32"/>
       <use xlink:href="#SimHei-32" x="50"/>
      </g>
     </g>
    </g>
    <g id="ytick_2">
     <g id="line2d_8">
      <g>
       <use xlink:href="#medc4b9be4d" x="54" y="221.558442" style="stroke: #000000; stroke-width: 0.8"/>
      </g>
     </g>
     <g id="text_9">
      <!-- 24 -->
      <g transform="translate(37 224.976411)scale(0.1 -0.1)">
       <use xlink:href="#SimHei-32"/>
       <use xlink:href="#SimHei-34" x="50"/>
      </g>
     </g>
    </g>
    <g id="ytick_3">
     <g id="line2d_9">
      <g>
       <use xlink:href="#medc4b9be4d" x="54" y="195.922738" style="stroke: #000000; stroke-width: 0.8"/>
      </g>
     </g>
     <g id="text_10">
      <!-- 26 -->
      <g transform="translate(37 199.340707)scale(0.1 -0.1)">
       <defs>
        <path id="SimHei-36" d="M 2850 1550 
Q 2850 850 2550 450 
Q 2250 50 1650 50 
Q 1050 50 700 550 
Q 350 1050 350 2175 
Q 350 3200 712 3812 
Q 1075 4425 1750 4425 
Q 2225 4425 2512 4075 
Q 2800 3725 2800 3300 
L 2225 3300 
Q 2225 3550 2087 3750 
Q 1950 3950 1725 3950 
Q 1350 3950 1150 3562 
Q 950 3175 925 2375 
Q 1100 2700 1300 2825 
Q 1500 2950 1775 2950 
Q 2250 2950 2550 2575 
Q 2850 2200 2850 1550 
z
M 2250 1550 
Q 2250 2000 2100 2250 
Q 1950 2500 1675 2500 
Q 1350 2500 1162 2250 
Q 975 2000 975 1650 
Q 975 1100 1162 800 
Q 1350 500 1675 500 
Q 1900 500 2075 725 
Q 2250 950 2250 1550 
z
" transform="scale(0.015625)"/>
       </defs>
       <use xlink:href="#SimHei-32"/>
       <use xlink:href="#SimHei-36" x="50"/>
      </g>
     </g>
    </g>
    <g id="ytick_4">
     <g id="line2d_10">
      <g>
       <use xlink:href="#medc4b9be4d" x="54" y="170.287035" style="stroke: #000000; stroke-width: 0.8"/>
      </g>
     </g>
     <g id="text_11">
      <!-- 28 -->
      <g transform="translate(37 173.705004)scale(0.1 -0.1)">
       <defs>
        <path id="SimHei-38" d="M 2875 1325 
Q 2875 700 2525 375 
Q 2175 50 1575 50 
Q 975 50 625 375 
Q 275 700 275 1325 
Q 275 1650 475 1912 
Q 675 2175 1025 2300 
Q 725 2425 562 2650 
Q 400 2875 400 3225 
Q 400 3775 750 4100 
Q 1100 4425 1575 4425 
Q 2050 4425 2400 4100 
Q 2750 3775 2750 3225 
Q 2750 2875 2587 2650 
Q 2425 2425 2125 2300 
Q 2475 2175 2675 1912 
Q 2875 1650 2875 1325 
z
M 2200 3225 
Q 2200 3625 2025 3800 
Q 1850 3975 1575 3975 
Q 1300 3975 1125 3800 
Q 950 3625 950 3225 
Q 950 2825 1137 2662 
Q 1325 2500 1575 2500 
Q 1825 2500 2012 2662 
Q 2200 2825 2200 3225 
z
M 2300 1325 
Q 2300 1675 2112 1875 
Q 1925 2075 1575 2075 
Q 1225 2075 1037 1875 
Q 850 1675 850 1325 
Q 850 925 1050 712 
Q 1250 500 1575 500 
Q 1900 500 2100 712 
Q 2300 925 2300 1325 
z
" transform="scale(0.015625)"/>
       </defs>
       <use xlink:href="#SimHei-32"/>
       <use xlink:href="#SimHei-38" x="50"/>
      </g>
     </g>
    </g>
    <g id="ytick_5">
     <g id="line2d_11">
      <g>
       <use xlink:href="#medc4b9be4d" x="54" y="144.651331" style="stroke: #000000; stroke-width: 0.8"/>
      </g>
     </g>
     <g id="text_12">
      <!-- 30 -->
      <g transform="translate(37 148.0693)scale(0.1 -0.1)">
       <use xlink:href="#SimHei-33"/>
       <use xlink:href="#SimHei-30" x="50"/>
      </g>
     </g>
    </g>
    <g id="ytick_6">
     <g id="line2d_12">
      <g>
       <use xlink:href="#medc4b9be4d" x="54" y="119.015628" style="stroke: #000000; stroke-width: 0.8"/>
      </g>
     </g>
     <g id="text_13">
      <!-- 32 -->
      <g transform="translate(37 122.433596)scale(0.1 -0.1)">
       <use xlink:href="#SimHei-33"/>
       <use xlink:href="#SimHei-32" x="50"/>
      </g>
     </g>
    </g>
    <g id="ytick_7">
     <g id="line2d_13">
      <g>
       <use xlink:href="#medc4b9be4d" x="54" y="93.379924" style="stroke: #000000; stroke-width: 0.8"/>
      </g>
     </g>
     <g id="text_14">
      <!-- 34 -->
      <g transform="translate(37 96.797893)scale(0.1 -0.1)">
       <use xlink:href="#SimHei-33"/>
       <use xlink:href="#SimHei-34" x="50"/>
      </g>
     </g>
    </g>
    <g id="ytick_8">
     <g id="line2d_14">
      <g>
       <use xlink:href="#medc4b9be4d" x="54" y="67.74422" style="stroke: #000000; stroke-width: 0.8"/>
      </g>
     </g>
     <g id="text_15">
      <!-- 36 -->
      <g transform="translate(37 71.162189)scale(0.1 -0.1)">
       <use xlink:href="#SimHei-33"/>
       <use xlink:href="#SimHei-36" x="50"/>
      </g>
     </g>
    </g>
    <g id="ytick_9">
     <g id="line2d_15">
      <g>
       <use xlink:href="#medc4b9be4d" x="54" y="42.108517" style="stroke: #000000; stroke-width: 0.8"/>
      </g>
     </g>
     <g id="text_16">
      <!-- 38 -->
      <g transform="translate(37 45.526486)scale(0.1 -0.1)">
       <use xlink:href="#SimHei-33"/>
       <use xlink:href="#SimHei-38" x="50"/>
      </g>
     </g>
    </g>
    <g id="text_17">
     <!-- Stock Price ($) -->
     <g transform="translate(31.710938 180.78)rotate(-90)scale(0.1 -0.1)">
      <defs>
       <path id="SimHei-53" d="M 2925 1300 
Q 2925 725 2562 387 
Q 2200 50 1575 50 
Q 950 50 600 400 
Q 250 750 250 1275 
L 250 1450 
L 825 1450 
L 825 1300 
Q 825 925 1050 725 
Q 1275 525 1575 525 
Q 1975 525 2162 737 
Q 2350 950 2350 1250 
Q 2350 1500 2125 1712 
Q 1900 1925 1475 2100 
Q 875 2325 612 2600 
Q 350 2875 350 3250 
Q 350 3775 712 4100 
Q 1075 4425 1575 4425 
Q 2225 4425 2512 4037 
Q 2800 3650 2800 3200 
L 2225 3200 
Q 2250 3475 2075 3700 
Q 1900 3925 1575 3925 
Q 1275 3925 1100 3762 
Q 925 3600 925 3325 
Q 925 3100 1062 2937 
Q 1200 2775 1775 2550 
Q 2325 2325 2625 2012 
Q 2925 1700 2925 1300 
z
" transform="scale(0.015625)"/>
       <path id="SimHei-74" d="M 2775 175 
Q 2650 125 2487 87 
Q 2325 50 2050 50 
Q 1600 50 1325 300 
Q 1050 550 1050 1000 
L 1050 2500 
L 200 2500 
L 200 2900 
L 1050 2900 
L 1050 3875 
L 1550 3875 
L 1550 2900 
L 2575 2900 
L 2575 2500 
L 1550 2500 
L 1550 975 
Q 1550 775 1650 637 
Q 1750 500 2025 500 
Q 2300 500 2475 550 
Q 2650 600 2775 675 
L 2775 175 
z
" transform="scale(0.015625)"/>
       <path id="SimHei-6f" d="M 2950 1500 
Q 2950 850 2550 450 
Q 2150 50 1600 50 
Q 1050 50 650 450 
Q 250 850 250 1500 
Q 250 2150 650 2550 
Q 1050 2950 1600 2950 
Q 2150 2950 2550 2550 
Q 2950 2150 2950 1500 
z
M 2400 1500 
Q 2400 2000 2150 2250 
Q 1900 2500 1600 2500 
Q 1300 2500 1050 2250 
Q 800 2000 800 1500 
Q 800 1000 1050 750 
Q 1300 500 1600 500 
Q 1900 500 2150 750 
Q 2400 1000 2400 1500 
z
" transform="scale(0.015625)"/>
       <path id="SimHei-63" d="M 2875 1225 
Q 2875 700 2512 375 
Q 2150 50 1600 50 
Q 1050 50 650 437 
Q 250 825 250 1500 
Q 250 2175 650 2562 
Q 1050 2950 1600 2950 
Q 2150 2950 2475 2662 
Q 2800 2375 2800 1975 
L 2250 1975 
Q 2225 2275 2037 2387 
Q 1850 2500 1600 2500 
Q 1300 2500 1050 2262 
Q 800 2025 800 1500 
Q 800 975 1050 737 
Q 1300 500 1600 500 
Q 1925 500 2125 675 
Q 2325 850 2325 1225 
L 2875 1225 
z
" transform="scale(0.015625)"/>
       <path id="SimHei-6b" d="M 2950 100 
L 2375 100 
L 1475 1625 
L 900 1075 
L 900 100 
L 400 100 
L 400 4375 
L 900 4375 
L 900 1650 
L 2150 2900 
L 2775 2900 
L 1800 1950 
L 2950 100 
z
" transform="scale(0.015625)"/>
       <path id="SimHei-50" d="M 2975 3075 
Q 2975 2475 2625 2125 
Q 2275 1775 1650 1775 
L 925 1775 
L 925 100 
L 350 100 
L 350 4375 
L 1650 4375 
Q 2275 4375 2625 4025 
Q 2975 3675 2975 3075 
z
M 2400 3075 
Q 2400 3550 2175 3725 
Q 1950 3900 1500 3900 
L 925 3900 
L 925 2250 
L 1500 2250 
Q 1950 2250 2175 2425 
Q 2400 2600 2400 3075 
z
" transform="scale(0.015625)"/>
       <path id="SimHei-72" d="M 2525 2400 
Q 2050 2475 1725 2262 
Q 1400 2050 1175 1525 
L 1175 100 
L 675 100 
L 675 2900 
L 1175 2900 
L 1175 2175 
Q 1400 2575 1737 2762 
Q 2075 2950 2525 2950 
L 2525 2400 
z
" transform="scale(0.015625)"/>
       <path id="SimHei-24" d="M 2750 1300 
Q 2750 650 2425 350 
Q 2100 50 1750 50 
L 1750 -575 
L 1400 -575 
L 1400 50 
Q 975 50 662 400 
Q 350 750 350 1475 
L 925 1475 
Q 925 850 1100 687 
Q 1275 525 1400 525 
L 1400 2150 
Q 800 2475 625 2737 
Q 450 3000 450 3350 
Q 450 3800 712 4087 
Q 975 4375 1400 4425 
L 1400 4900 
L 1750 4900 
L 1750 4425 
Q 2175 4425 2437 4087 
Q 2700 3750 2700 3250 
L 2150 3250 
Q 2150 3625 2012 3787 
Q 1875 3950 1750 3950 
L 1750 2550 
Q 2150 2350 2450 2050 
Q 2750 1750 2750 1300 
z
M 1400 2750 
L 1400 3950 
Q 1250 3950 1112 3812 
Q 975 3675 975 3400 
Q 975 3225 1050 3062 
Q 1125 2900 1400 2750 
z
M 2200 1175 
Q 2200 1450 2075 1625 
Q 1950 1800 1750 1950 
L 1750 525 
Q 1900 550 2050 675 
Q 2200 800 2200 1175 
z
" transform="scale(0.015625)"/>
      </defs>
      <use xlink:href="#SimHei-53"/>
      <use xlink:href="#SimHei-74" x="50"/>
      <use xlink:href="#SimHei-6f" x="100"/>
      <use xlink:href="#SimHei-63" x="150"/>
      <use xlink:href="#SimHei-6b" x="200"/>
      <use xlink:href="#SimHei-20" x="250"/>
      <use xlink:href="#SimHei-50" x="300"/>
      <use xlink:href="#SimHei-72" x="350"/>
      <use xlink:href="#SimHei-69" x="400"/>
      <use xlink:href="#SimHei-63" x="450"/>
      <use xlink:href="#SimHei-65" x="500"/>
      <use xlink:href="#SimHei-20" x="550"/>
      <use xlink:href="#SimHei-28" x="600"/>
      <use xlink:href="#SimHei-24" x="650"/>
      <use xlink:href="#SimHei-29" x="700"/>
     </g>
    </g>
   </g>
   <g id="line2d_16">
    <path d="M 69.218182 144.651331 
L 69.826909 141.467927 
L 70.435636 142.354053 
L 71.044364 138.203065 
L 71.653091 128.442079 
L 72.870545 131.443317 
L 73.479273 121.322259 
L 74.088 116.403827 
L 74.696727 119.412654 
L 75.305455 115.935427 
L 76.522909 121.890264 
L 77.131636 120.339545 
L 78.349091 143.656487 
L 78.957818 147.260146 
L 79.566545 153.751306 
L 80.175273 151.737318 
L 80.784 157.556777 
L 81.392727 166.608127 
L 82.001455 157.214893 
L 82.610182 158.661876 
L 83.218909 158.229093 
L 83.827636 167.360198 
L 84.436364 170.849107 
L 85.045091 170.138212 
L 85.653818 177.514845 
L 86.262545 175.107024 
L 86.871273 178.956473 
L 87.48 180.825917 
L 88.088727 184.68221 
L 88.697455 172.811096 
L 89.306182 172.897599 
L 89.914909 179.67639 
L 90.523636 174.40476 
L 91.132364 182.229057 
L 91.741091 180.890466 
L 92.349818 193.449846 
L 92.958545 201.962092 
L 93.567273 200.700423 
L 94.176 195.967645 
L 94.784727 194.869359 
L 95.393455 195.61054 
L 96.002182 197.540291 
L 96.610909 207.016029 
L 97.219636 211.629457 
L 97.828364 214.581657 
L 98.437091 207.806639 
L 99.045818 205.604415 
L 99.654545 216.903609 
L 100.263273 214.826579 
L 100.872 217.294542 
L 101.480727 221.632885 
L 102.089455 217.712697 
L 103.306909 205.136593 
L 103.915636 210.515075 
L 104.524364 212.496795 
L 105.133091 210.373752 
L 105.741818 204.121555 
L 106.350545 207.192548 
L 106.959273 208.382422 
L 108.176727 223.139241 
L 108.785455 217.931823 
L 109.394182 209.239781 
L 110.002909 209.701289 
L 110.611636 203.269721 
L 111.220364 200.952022 
L 111.829091 205.086547 
L 112.437818 202.770389 
L 113.046545 192.913227 
L 113.655273 193.142833 
L 114.264 183.115148 
L 114.872727 199.9049 
L 115.481455 194.637388 
L 116.090182 194.07951 
L 116.698909 195.995826 
L 117.307636 195.407738 
L 117.916364 208.14592 
L 118.525091 209.55378 
L 119.133818 207.265072 
L 119.742545 197.793359 
L 120.351273 201.114914 
L 120.96 206.29649 
L 121.568727 209.512214 
L 122.177455 203.645469 
L 122.786182 201.538528 
L 123.394909 204.933722 
L 124.003636 201.644229 
L 124.612364 201.022066 
L 125.221091 194.814092 
L 125.829818 199.313498 
L 126.438545 201.413461 
L 127.047273 203.926453 
L 127.656 213.306012 
L 128.873455 209.735115 
L 129.482182 209.702343 
L 130.090909 211.205795 
L 130.699636 220.276801 
L 131.917091 225.169118 
L 132.525818 230.310853 
L 133.134545 231.344521 
L 133.743273 228.754989 
L 134.352 216.666564 
L 134.960727 215.547707 
L 135.569455 213.897086 
L 136.178182 214.374204 
L 136.786909 226.671467 
L 137.395636 226.841392 
L 138.004364 226.455381 
L 138.613091 210.668645 
L 139.221818 211.901472 
L 139.830545 209.968878 
L 140.439273 210.191343 
L 141.048 217.681314 
L 141.656727 210.357047 
L 142.874182 200.468299 
L 143.482909 206.296496 
L 144.091636 197.306091 
L 144.700364 206.290451 
L 145.309091 202.529327 
L 145.917818 188.490859 
L 146.526545 194.839133 
L 147.135273 198.468493 
L 147.744 197.829835 
L 148.352727 201.056573 
L 148.961455 210.99466 
L 149.570182 210.555245 
L 150.178909 217.363471 
L 150.787636 214.328252 
L 151.396364 220.220774 
L 152.005091 210.287359 
L 152.613818 215.307172 
L 153.222545 217.37124 
L 153.831273 212.157468 
L 154.44 220.045987 
L 155.048727 218.588213 
L 155.657455 210.210832 
L 156.266182 220.513073 
L 156.874909 219.329768 
L 157.483636 217.664198 
L 158.092364 212.653553 
L 159.309818 229.043787 
L 159.918545 225.698703 
L 161.744727 219.969599 
L 162.353455 224.327827 
L 162.962182 222.83933 
L 163.570909 220.96105 
L 164.179636 225.539276 
L 164.788364 213.581665 
L 165.397091 210.544905 
L 166.005818 218.179881 
L 166.614545 213.972077 
L 167.223273 220.21874 
L 167.832 215.174373 
L 168.440727 207.74902 
L 169.049455 213.008712 
L 169.658182 206.834506 
L 170.266909 204.189024 
L 170.875636 198.920501 
L 171.484364 186.764095 
L 172.093091 188.336769 
L 173.310545 198.868241 
L 173.919273 204.096708 
L 174.528 204.590848 
L 175.745455 200.631139 
L 176.354182 195.329783 
L 176.962909 195.246455 
L 177.571636 185.930862 
L 178.180364 187.627029 
L 178.789091 170.193666 
L 179.397818 166.18381 
L 180.006545 171.677269 
L 180.615273 178.54054 
L 181.224 175.44841 
L 181.832727 176.880567 
L 182.441455 172.30459 
L 183.050182 169.271645 
L 183.658909 169.738401 
L 184.267636 175.165439 
L 184.876364 184.873982 
L 185.485091 187.735664 
L 186.093818 182.247067 
L 186.702545 180.874956 
L 187.311273 188.858804 
L 187.92 187.7489 
L 188.528727 185.27943 
L 189.137455 190.944006 
L 189.746182 189.958794 
L 190.354909 189.585738 
L 190.963636 196.91095 
L 191.572364 194.617917 
L 192.181091 191.023891 
L 193.398545 177.328957 
L 194.007273 186.158337 
L 194.616 192.168789 
L 196.442182 182.274247 
L 197.050909 157.582377 
L 197.659636 153.923582 
L 198.877091 140.531699 
L 199.485818 136.356981 
L 200.094545 138.377518 
L 200.703273 133.51334 
L 201.312 138.46632 
L 201.920727 139.984073 
L 202.529455 143.094732 
L 203.138182 142.570007 
L 203.746909 127.735531 
L 204.355636 139.702696 
L 204.964364 135.304505 
L 205.573091 145.640281 
L 206.181818 148.664858 
L 206.790545 141.685854 
L 207.399273 141.273888 
L 208.008 148.181075 
L 208.616727 152.765403 
L 209.225455 148.409911 
L 209.834182 153.090777 
L 210.442909 151.70351 
L 211.051636 151.411443 
L 211.660364 155.587502 
L 212.269091 141.847123 
L 212.877818 137.784383 
L 213.486545 150.763372 
L 214.095273 149.5684 
L 214.704 153.80974 
L 215.312727 148.346558 
L 215.921455 153.425765 
L 216.530182 154.161102 
L 217.138909 150.924676 
L 217.747636 145.376115 
L 218.356364 153.068726 
L 218.965091 155.21252 
L 219.573818 158.256409 
L 220.182545 162.443548 
L 220.791273 151.128882 
L 221.4 148.533384 
L 222.008727 156.614296 
L 222.617455 150.731787 
L 223.226182 137.131045 
L 223.834909 130.514052 
L 224.443636 140.251581 
L 225.052364 143.355002 
L 225.661091 135.235462 
L 226.269818 139.770863 
L 226.878545 136.926457 
L 227.487273 131.961885 
L 228.096 137.902514 
L 228.704727 138.284007 
L 229.313455 159.05705 
L 229.922182 165.622274 
L 230.530909 167.240965 
L 231.139636 175.237915 
L 231.748364 164.775912 
L 232.357091 173.941582 
L 232.965818 176.761794 
L 233.574545 175.923888 
L 234.183273 166.686874 
L 234.792 175.889208 
L 235.400727 168.434578 
L 236.009455 168.368995 
L 236.618182 174.659411 
L 237.226909 171.697824 
L 237.835636 170.422065 
L 238.444364 174.268811 
L 239.053091 173.821454 
L 239.661818 176.290901 
L 240.270545 175.563376 
L 240.879273 171.31983 
L 241.488 161.155166 
L 242.096727 169.088233 
L 242.705455 155.417781 
L 243.314182 167.928567 
L 243.922909 168.901346 
L 244.531636 165.130865 
L 245.140364 163.330009 
L 245.749091 167.320844 
L 246.357818 168.654684 
L 246.966545 171.81429 
L 247.575273 175.591485 
L 248.184 170.146448 
L 248.792727 167.858363 
L 249.401455 172.299169 
L 250.010182 166.5337 
L 250.618909 164.56424 
L 251.227636 159.354667 
L 251.836364 155.319422 
L 252.445091 160.63239 
L 253.053818 164.222549 
L 254.271273 155.521382 
L 254.88 155.655338 
L 255.488727 154.903396 
L 256.097455 146.714936 
L 256.706182 150.506273 
L 257.314909 146.999967 
L 258.532364 149.690907 
L 259.141091 142.648928 
L 260.358545 132.145173 
L 260.967273 123.778456 
L 261.576 123.643844 
L 262.184727 119.273258 
L 262.793455 121.261734 
L 263.402182 119.184176 
L 264.010909 120.018253 
L 264.619636 119.396613 
L 265.228364 115.582296 
L 265.837091 120.826212 
L 266.445818 107.416257 
L 267.054545 113.863748 
L 267.663273 121.645393 
L 268.272 114.223146 
L 268.880727 109.149438 
L 270.098182 101.122481 
L 270.706909 101.200969 
L 271.315636 106.951406 
L 271.924364 106.46558 
L 272.533091 110.80546 
L 273.141818 104.555989 
L 273.750545 105.498469 
L 274.359273 110.78902 
L 274.968 112.848758 
L 275.576727 110.202311 
L 276.185455 113.81518 
L 276.794182 119.084729 
L 278.011636 115.952983 
L 279.229091 122.220794 
L 279.837818 120.733603 
L 281.055273 139.0346 
L 281.664 143.639055 
L 282.272727 145.007022 
L 282.881455 143.014439 
L 283.490182 133.55899 
L 284.098909 128.062313 
L 284.707636 129.087347 
L 285.316364 129.209221 
L 285.925091 135.634357 
L 286.533818 135.753006 
L 287.142545 137.602998 
L 287.751273 135.534719 
L 288.36 140.836381 
L 288.968727 137.507927 
L 289.577455 127.684717 
L 290.186182 128.381753 
L 290.794909 125.807212 
L 291.403636 121.384131 
L 292.012364 123.955523 
L 292.621091 122.519331 
L 293.229818 122.438627 
L 293.838545 121.812628 
L 294.447273 126.766791 
L 295.056 126.609707 
L 295.664727 123.418073 
L 296.273455 114.117801 
L 296.882182 107.969905 
L 297.490909 94.170318 
L 298.099636 99.088192 
L 298.708364 93.497554 
L 299.317091 92.322528 
L 299.925818 78.288244 
L 301.143273 88.850282 
L 301.752 92.691746 
L 302.360727 106.303636 
L 302.969455 109.673161 
L 303.578182 114.538386 
L 304.186909 113.574523 
L 304.795636 111.384234 
L 305.404364 99.359995 
L 306.013091 93.268799 
L 306.621818 96.966131 
L 307.230545 102.724004 
L 307.839273 99.571331 
L 308.448 108.032608 
L 309.056727 96.294924 
L 309.665455 88.73598 
L 310.274182 91.742892 
L 310.882909 102.722244 
L 311.491636 94.045376 
L 312.100364 94.779454 
L 312.709091 86.846381 
L 313.317818 97.064949 
L 313.926545 100.9063 
L 314.535273 100.872693 
L 315.144 100.571598 
L 315.752727 103.456034 
L 316.361455 99.464235 
L 316.970182 106.306535 
L 317.578909 107.219035 
L 318.187636 106.448069 
L 318.796364 103.151069 
L 319.405091 98.590382 
L 320.013818 105.79813 
L 320.622545 115.630154 
L 321.231273 107.441618 
L 321.84 105.311842 
L 322.448727 110.108836 
L 323.057455 100.167618 
L 323.666182 99.426268 
L 324.274909 91.86824 
L 324.883636 91.435519 
L 326.101091 66.978489 
L 326.709818 68.574082 
L 327.318545 62.347355 
L 327.927273 58.211189 
L 328.536 49.43973 
L 329.144727 55.623853 
L 329.753455 51.227 
L 330.362182 44.443636 
L 330.970909 55.715267 
L 331.579636 63.298684 
L 332.188364 76.367971 
L 332.797091 78.09458 
L 333.405818 73.495905 
L 334.014545 63.86741 
L 334.623273 63.392542 
L 335.232 52.954865 
L 335.840727 61.799833 
L 336.449455 72.716685 
L 337.058182 73.072686 
L 337.666909 70.611239 
L 338.275636 70.820778 
L 338.884364 84.070861 
L 339.493091 84.642024 
L 340.101818 93.002273 
L 340.710545 88.710391 
L 341.319273 86.36089 
L 341.928 92.38451 
L 342.536727 95.677845 
L 343.145455 102.466266 
L 343.754182 102.867972 
L 344.362909 96.746535 
L 344.971636 103.063981 
L 345.580364 99.833584 
L 346.189091 103.231966 
L 346.797818 108.313429 
L 347.406545 108.999378 
L 348.015273 115.63417 
L 348.624 119.182467 
L 349.232727 126.859578 
L 349.841455 114.2678 
L 350.450182 114.041798 
L 351.058909 118.526287 
L 351.667636 117.154906 
L 352.276364 117.874808 
L 352.885091 119.290986 
L 353.493818 115.354837 
L 354.102545 110.500026 
L 355.32 117.590345 
L 355.928727 119.353131 
L 356.537455 134.105973 
L 357.146182 143.816721 
L 357.754909 135.056525 
L 358.363636 124.514049 
L 358.972364 126.110102 
L 359.581091 122.414991 
L 360.189818 120.420212 
L 360.798545 100.687893 
L 361.407273 93.51262 
L 362.016 94.332435 
L 362.624727 100.456423 
L 363.233455 110.752018 
L 363.842182 109.448035 
L 364.450909 114.295431 
L 365.059636 123.410549 
L 365.668364 127.554387 
L 366.277091 134.485948 
L 366.885818 123.673182 
L 367.494545 118.022818 
L 368.103273 118.073914 
L 368.712 108.589062 
L 369.320727 108.093214 
L 369.929455 113.613121 
L 370.538182 103.851532 
L 371.146909 100.397697 
L 371.755636 107.045331 
L 372.364364 108.265197 
L 372.973091 113.87697 
L 373.581818 122.739231 
L 373.581818 122.739231 
" clip-path="url(#p161dfbb201)" style="fill: none; stroke: #1f77b4; stroke-width: 1.5; stroke-linecap: square"/>
   </g>
   <g id="line2d_17">
    <path d="M 69.218182 214.159127 
L 373.581818 92.698334 
L 373.581818 92.698334 
" clip-path="url(#p161dfbb201)" style="fill: none; stroke: #ff7f0e; stroke-width: 1.5; stroke-linecap: square"/>
   </g>
   <g id="line2d_18">
    <path d="M 69.218182 186.201891 
L 373.581818 64.741097 
L 373.581818 64.741097 
" clip-path="url(#p161dfbb201)" style="fill: none; stroke: #2ca02c; stroke-width: 1.5; stroke-linecap: square"/>
   </g>
   <g id="line2d_19">
    <path d="M 69.218182 242.116364 
L 373.581818 120.65557 
L 373.581818 120.65557 
" clip-path="url(#p161dfbb201)" style="fill: none; stroke: #d62728; stroke-width: 1.5; stroke-linecap: square"/>
   </g>
   <g id="patch_3">
    <path d="M 54 252 
L 54 34.56 
" style="fill: none; stroke: #000000; stroke-width: 0.8; stroke-linejoin: miter; stroke-linecap: square"/>
   </g>
   <g id="patch_4">
    <path d="M 388.8 252 
L 388.8 34.56 
" style="fill: none; stroke: #000000; stroke-width: 0.8; stroke-linejoin: miter; stroke-linecap: square"/>
   </g>
   <g id="patch_5">
    <path d="M 54 252 
L 388.8 252 
" style="fill: none; stroke: #000000; stroke-width: 0.8; stroke-linejoin: miter; stroke-linecap: square"/>
   </g>
   <g id="patch_6">
    <path d="M 54 34.56 
L 388.8 34.56 
" style="fill: none; stroke: #000000; stroke-width: 0.8; stroke-linejoin: miter; stroke-linecap: square"/>
   </g>
  </g>
 </g>
 <defs>
  <clipPath id="p161dfbb201">
   <rect x="54" y="34.56" width="334.8" height="217.44"/>
  </clipPath>
 </defs>
</svg>
